<svg xmlns="http://www.w3.org/2000/svg" width="91" height="29" viewBox="0 0 91 29" fill="none"><path d="M15.8698 0.154004C18.6926 0.154004 21.5174 0.152004 24.3402 0.156004C25.2602 0.158004 25.3492 0.248004 25.3512 1.162C25.3553 2.738 25.3573 4.314 25.3512 5.89C25.3492 6.704 25.2784 6.772 24.4453 6.772C19.1921 6.774 13.9388 6.772 8.68551 6.774C7.6664 6.774 7.66437 6.776 7.66437 7.776C7.66437 12.03 7.66235 16.282 7.66437 20.536C7.66437 21.384 7.67853 21.398 8.55205 21.398C14.3755 21.4 20.197 21.398 26.0205 21.398C26.1742 21.398 26.3279 21.392 26.4795 21.4C26.6716 21.412 26.9163 21.342 27.0255 21.532C27.169 21.784 26.89 21.912 26.7626 22.062C25.3613 23.734 24.1178 25.502 23.3211 27.542C23.1795 27.904 22.9409 28.022 22.5669 28.022C17.2691 28.014 11.9713 28.088 6.67559 27.982C3.96807 27.928 2.15025 26.318 0.97342 24.002C0.267726 22.612 -0.0173826 21.126 0.00081579 19.554C0.0432788 15.734 -0.0173826 11.912 0.0271024 8.09C0.0554111 5.606 0.959266 3.458 2.86808 1.774C4.21476 0.584004 5.84251 0.172004 7.59562 0.160004C10.3537 0.142004 13.1118 0.154004 15.8698 0.154004Z" fill="#687FA4"></path><path d="M77.4614 0.0100168C81.4448 0.0100168 85.4262 0.00801684 89.4097 0.0100168C90.3337 0.0100168 90.3782 0.0520166 90.3803 0.954016C90.3843 2.57202 90.3843 4.19202 90.3803 5.81002C90.3782 6.68201 90.3257 6.73802 89.4582 6.73802C86.8538 6.74202 84.2494 6.73802 81.647 6.74002C80.6946 6.74002 80.6906 6.74202 80.6906 7.66602C80.6906 14.12 80.6906 20.572 80.6906 27.026C80.6906 28.018 80.6886 28.018 79.6654 28.02C77.9588 28.02 76.2522 28.022 74.5456 28.02C73.5467 28.02 73.5447 28.018 73.5447 27.002C73.5447 20.592 73.5447 14.182 73.5447 7.77201C73.5447 6.74201 73.5427 6.74002 72.4973 6.74002C70.178 6.74002 67.8587 6.74202 65.5394 6.73802C64.7003 6.73602 64.6376 6.67401 64.6335 5.86001C64.6254 4.17602 64.6477 2.49202 64.6093 0.810017C64.5951 0.174017 64.8398 -0.0019832 65.4524 1.68043e-05C69.4521 0.0180168 73.4557 0.0100168 77.4614 0.0100168Z" fill="#687FA4"></path><path d="M59.0668 28.018C58.1043 28.018 57.1398 28.002 56.1773 28.024C55.7385 28.034 55.5 27.864 55.3463 27.462C53.7084 23.182 51.9998 18.93 50.3882 14.64C49.6097 12.566 50.0202 12.77 48.2691 13.848C43.764 16.62 40.0434 20.19 37.5442 24.88C37.1074 25.7 36.7394 26.558 36.3855 27.416C36.2137 27.834 35.9811 28.022 35.512 28.02C32.6225 28.006 29.735 28.016 26.8455 28.01C26.16 28.008 26.0974 27.916 26.3562 27.296C27.628 24.238 29.6521 21.712 32.1129 19.518C34.0157 17.82 36.157 16.446 38.3166 15.078C41.9199 12.798 45.873 11.386 49.9333 10.228C54.9136 8.80801 60.0152 8.07801 65.1977 7.87801C66.2694 7.83601 67.339 7.78601 68.4107 7.78401C68.5765 7.78401 68.7969 7.74001 68.8596 7.95401C68.9081 8.12001 68.7363 8.21601 68.6271 8.31601C68.0872 8.82001 67.4988 9.10601 66.7001 9.09801C63.4244 9.07201 60.2032 9.52601 57.0286 10.312C56.2198 10.512 56.2036 10.526 56.4988 11.318C58.4299 16.504 60.365 21.688 62.3041 26.87C62.7348 28.02 62.747 28.016 61.4994 28.016C60.6865 28.02 59.8777 28.018 59.0668 28.018Z" fill="#687FA4"></path><path d="M45.6768 3.17002C45.2502 4.21002 44.8842 5.10602 44.5182 6.00402C43.859 7.62602 43.1917 9.24601 42.5467 10.874C42.4011 11.242 42.1686 11.46 41.8026 11.63C39.9807 12.472 38.1285 13.26 36.3977 14.28C35.4797 14.822 34.6001 15.428 33.7003 16C33.5789 16.078 33.4435 16.234 33.2958 16.116C33.1523 15.998 33.2696 15.832 33.3242 15.698C34.683 12.306 36.0357 8.91402 37.4087 5.52802C37.9203 4.27002 38.3307 2.96002 39.2346 1.88801C40.1061 0.852015 41.1717 0.240015 42.575 0.254015C44.4353 0.272015 46.2996 0.338015 48.1559 0.238015C50.647 0.104015 52.0948 1.43202 53.0189 3.46402C53.6174 4.77802 54.0137 6.18202 54.5193 7.53802C54.683 7.97802 54.5455 8.16602 54.0966 8.25602C52.3172 8.61202 50.5298 8.94202 48.7948 9.48202C48.2529 9.65001 48.1619 9.25202 48.0244 8.92002C47.3208 7.19802 46.6232 5.47402 45.9235 3.75202C45.8669 3.61402 45.8062 3.47602 45.6768 3.17002Z" fill="#687FA4"></path></svg>