<svg xmlns="http://www.w3.org/2000/svg" width="90" height="90" viewBox="0 0 90 90" fill="none"><g filter="url(#filter0_d)"><circle cx="45" cy="45" r="25" fill="white"></circle></g><g clip-path="url(#clip0)"><path d="M45.7804 50.5559L54.6805 41.6556C54.8865 41.4498 55 41.175 55 40.882C55 40.589 54.8865 40.3142 54.6805 40.1083L54.0252 39.4529C53.5982 39.0264 52.9042 39.0264 52.4779 39.4529L45.0041 46.9267L37.5221 39.4446C37.3161 39.2387 37.0414 39.1251 36.7486 39.1251C36.4554 39.1251 36.1808 39.2387 35.9746 39.4446L35.3195 40.1C35.1135 40.3061 35 40.5807 35 40.8737C35 41.1667 35.1135 41.4415 35.3195 41.6473L44.2277 50.5559C44.4344 50.7622 44.7103 50.8756 45.0037 50.8749C45.2981 50.8756 45.5739 50.7622 45.7804 50.5559Z" fill="#00307D"></path></g><defs><filter id="filter0_d" x="0" y="0" width="90" height="90" filterUnits="userSpaceOnUse" color-interpolation-filters="sRGB"><feGaussianBlur stdDeviation="10"></feGaussianBlur></filter><clipPath id="clip0"><rect width="20" height="20" fill="white" transform="translate(55 35) rotate(90)"></rect></clipPath></defs></svg>