<svg xmlns="http://www.w3.org/2000/svg" width="83" height="31" viewBox="0 0 83 31" fill="none"><path d="M74.6533 20.103C72.4581 20.103 70.2637 20.0991 68.0686 20.1061C67.4847 20.1076 66.9016 20.1508 66.3178 20.1624C66.066 20.1671 65.9654 20.2257 66.1307 20.4704C66.5711 21.1218 66.9804 21.7917 67.519 22.3752C68.7889 23.7506 70.7977 24.2569 72.6623 23.2388C73.3569 22.8599 74.0273 22.4431 74.6922 22.0171C74.8739 21.9005 75.0454 21.8426 75.2745 21.9013C77.26 22.4122 79.2384 22.9463 81.2068 23.5167C81.4219 23.5792 81.6004 23.6255 81.3861 23.8879C80.3906 25.1074 79.4318 26.3623 78.1931 27.3595C76.5405 28.6909 74.6322 29.4704 72.5407 29.7784C69.2995 30.2546 66.2897 29.6317 63.5824 27.7601C61.6398 26.4171 60.437 24.5409 59.7307 22.3389C58.6074 18.8349 58.662 15.3556 60.2156 11.9921C61.9618 8.21176 64.9575 5.98046 69.1295 5.39852C72.3022 4.9555 75.2379 5.61694 77.794 7.57502C79.7865 9.10088 80.976 11.1732 81.6254 13.5596C82.1742 15.5756 82.2654 17.6402 82.2591 19.7148C82.2583 20.0729 82.0588 20.0976 81.782 20.0968C79.4053 20.0922 77.0285 20.0945 74.6517 20.0945C74.6533 20.0976 74.6533 20.1007 74.6533 20.103ZM70.0081 15.0492C70.8648 15.0492 71.7215 15.06 72.5782 15.0461C73.4473 15.0322 74.3149 14.9882 75.1841 14.972C75.4842 14.9666 75.5271 14.8879 75.3556 14.6448C74.9175 14.0235 74.4716 13.4083 73.9883 12.8187C72.7317 11.2859 70.3284 11.0281 68.8099 11.8431C67.6235 12.4799 66.8377 13.484 66.147 14.5892C65.974 14.8663 65.9833 14.9797 66.3505 15.0067C67.5689 15.0955 68.7889 15.0307 70.0081 15.0492Z" fill="#687FA4"></path><path d="M36.1555 15.219C36.1477 11.9458 36.3098 9.08007 36.2225 6.21203C36.217 6.043 36.2186 5.88556 36.4517 5.90485C37.504 5.99207 38.5525 5.81146 39.6041 5.86858C40.1498 5.8979 40.6908 5.95116 41.2201 6.09394C41.9871 6.30079 42.5959 6.72528 43.0808 7.35276C43.3731 7.73095 43.3848 8.16393 43.4324 8.59306C43.5345 9.50147 43.5368 10.4153 43.5282 11.3283C43.5126 12.9484 43.4947 14.5684 43.4783 16.1884C43.4635 17.6626 43.508 19.1437 43.7629 20.6078C44.0186 22.0742 45.0319 23.1355 46.5255 23.3562C47.8445 23.5515 49.0395 23.2829 49.9157 22.1807C50.2532 21.7562 50.4536 21.2715 50.4886 20.7297C50.551 19.7681 50.6227 18.8064 50.6586 17.8439C50.8012 14.0899 50.5853 10.3358 50.6562 6.58173C50.6679 5.94035 50.6625 5.93958 51.2931 5.93958C53.3589 5.93958 55.4238 5.94807 57.4896 5.93109C57.8684 5.92801 57.9651 6.0322 57.9558 6.40807C57.8638 10.1374 58.0828 13.8653 58.0228 17.5946C57.994 19.3968 57.8895 21.1974 57.52 22.961C57.0913 25.0102 55.9344 26.6294 54.2304 27.8589C52.3463 29.2181 50.2127 29.8602 47.903 29.9806C45.5308 30.1041 43.2726 29.6819 41.1787 28.5427C39.0226 27.3696 37.5134 25.6515 36.8329 23.286C36.5265 22.2209 36.4314 21.1141 36.3184 20.0143C36.1438 18.2854 36.1391 16.5504 36.1555 15.219Z" fill="#687FA4"></path><path d="M6.92303 0.000343025C7.94967 0.000343025 8.97553 -0.000428782 10.0022 0.000343025C10.5517 0.00111483 10.551 0.00343026 10.5564 0.526716C10.5736 2.17221 10.6024 3.81847 10.6024 5.46397C10.6024 5.83598 10.7225 5.94712 11.0951 5.9448C13.4461 5.93091 15.798 5.93708 18.149 5.93863C18.6495 5.93863 18.6775 5.9502 18.644 6.42872C18.5661 7.55479 18.6292 8.69321 18.3564 9.80384C18.2823 10.1048 18.1942 10.3997 18.0602 10.6798C17.5496 11.7496 16.7279 12.3184 15.5041 12.3894C14.0752 12.4727 12.6479 12.4411 11.2198 12.455C10.611 12.4612 10.6281 12.4573 10.6055 13.0771C10.5494 14.6068 10.5369 16.1365 10.5424 17.667C10.5463 18.6719 10.6188 19.6722 10.7926 20.6601C10.968 21.6534 11.6228 22.2955 12.492 22.7378C13.1616 23.0781 13.8936 23.2148 14.6388 23.2279C15.7816 23.2479 16.9252 23.2464 18.068 23.2294C18.4616 23.2232 18.5809 23.3629 18.5778 23.7481C18.5606 25.5873 18.563 27.4265 18.5762 29.2657C18.5785 29.6277 18.4733 29.7605 18.0913 29.7581C16.0404 29.7466 13.9902 29.7689 11.9533 29.4417C9.06206 28.9771 6.62369 27.7561 4.88768 25.3542C3.94834 24.0553 3.5274 22.561 3.34577 20.9958C3.17037 19.4862 3.16102 17.9726 3.24365 16.453C3.30289 15.3624 3.25534 14.2664 3.28496 13.1743C3.29588 12.7753 3.14933 12.6665 2.76424 12.6788C1.99874 12.7035 1.23168 12.6726 0.465407 12.6873C0.127091 12.6943 0.00548482 12.5646 0.00626435 12.2358C0.0132801 10.2808 0.0125006 8.32583 2.81192e-05 6.37084C-0.00231047 6.0243 0.141123 5.93091 0.466966 5.93708C1.24572 5.95252 2.02602 5.92473 2.80477 5.94557C3.16024 5.95561 3.27795 5.84447 3.27483 5.48712C3.25924 3.84086 3.26704 2.19459 3.26859 0.548326C3.26859 0.00728928 3.27405 0.00265845 3.80491 0.00188664C4.8448 -0.000428782 5.88391 0.000343025 6.92303 0.000343025Z" fill="#687FA4"></path><path d="M19.7246 22.8839C19.7246 20.8393 19.6918 18.7948 19.7363 16.7511C19.7635 15.4969 19.7737 14.235 20.1019 13.0009C21.0708 9.35947 24.2279 6.52771 27.9782 6.05305C29.807 5.82151 31.6545 5.81919 33.4989 5.91952C33.8746 5.93959 34.2519 5.94422 34.6276 5.93805C34.8973 5.93342 35.0314 6.016 35.0298 6.3116C35.0213 8.30441 35.0197 10.2972 35.0283 12.29C35.0299 12.6126 34.87 12.6844 34.5949 12.6782C33.583 12.6543 32.5712 12.6273 31.5586 12.6173C30.9864 12.6119 30.4174 12.6821 29.8592 12.804C28.2222 13.1622 27.4053 14.1655 27.2229 15.8959C26.9711 18.28 26.9407 20.6695 27.0132 23.0583C27.0755 25.1028 27.0646 27.145 27.0654 29.1887C27.0654 29.7205 27.049 29.7313 26.5189 29.7313C24.4283 29.7321 22.3376 29.7329 20.2469 29.7313C19.7394 29.7313 19.7246 29.7136 19.7246 29.2088C19.7246 27.1002 19.7246 24.9917 19.7246 22.8831C19.7261 22.8839 19.7254 22.8839 19.7246 22.8839Z" fill="#687FA4"></path></svg>