<svg xmlns="http://www.w3.org/2000/svg" width="70" height="70" viewBox="0 0 70 70" fill="none"><path d="M70 32.2418C70 34.0961 70 35.9505 70 37.8049C69.841 38.9348 69.7209 40.0731 69.5172 41.1947C66.9832 55.1475 56.4338 66.1445 42.6557 69.2307C41.0483 69.5912 39.4151 69.7655 37.7901 70.0002C35.9485 70.0002 34.1069 70.0002 32.2652 70.0002C31.123 69.8414 29.9726 69.7216 28.8386 69.5177C10.9191 66.2962 -1.96998 49.6852 0.248466 30.8771C1.1269 23.4347 4.04479 16.8721 9.15405 11.4406C18.0149 2.02412 28.9293 -1.5779 41.6018 0.628605C55.1586 2.98925 66.2131 13.8072 69.2181 27.3426C69.5773 28.9623 69.7692 30.6044 70 32.2418ZM34.8522 5.72693C33.7018 5.71863 32.3547 5.77673 31.0135 5.97592C22.745 7.20426 16.0873 11.1857 11.1817 17.9843C6.63415 24.2872 4.97738 31.3905 5.99123 39.0973C6.66359 44.2122 8.64771 48.8019 11.7623 52.8995C12.0555 53.286 12.391 53.4366 12.8656 53.4176C14.2138 53.3619 15.5021 53.0453 16.7432 52.5379C17.85 52.0849 18.9369 51.5834 20.0426 51.1293C22.2457 50.2235 24.4877 50.1013 26.7686 50.821C28.1757 51.2657 29.491 51.9296 30.8334 52.5284C33.398 53.6737 35.9921 53.7626 38.6026 52.7371C39.8791 52.2355 41.1213 51.6474 42.3895 51.1234C44.2689 50.348 46.2035 50.1108 48.2018 50.5768C49.669 50.9183 50.9866 51.6202 52.3207 52.2841C53.8374 53.0382 55.4223 53.4745 57.1297 53.4473C57.649 53.439 58.0046 53.273 58.319 52.8521C63.4024 46.0428 65.3182 38.4096 63.9063 30.0329C61.496 15.722 48.9507 5.60955 34.8522 5.72693ZM35.096 64.3304C36.0321 64.2996 37.0671 64.2984 38.1022 64.1905C41.988 63.7838 45.643 62.6409 49.0767 60.7734C49.225 60.6928 49.4676 60.6466 49.457 60.4521C49.4452 60.2494 49.1956 60.2482 49.0378 60.1925C46.9124 59.4408 44.8058 59.5226 42.7322 60.381C41.5382 60.8754 40.3701 61.435 39.1726 61.92C36.2912 63.0867 33.4145 63.089 30.5566 61.8121C29.5016 61.3402 28.4548 60.847 27.3832 60.4142C25.3567 59.5937 23.2831 59.4431 21.1789 60.1059C20.9622 60.1735 20.6125 60.1759 20.5866 60.4071C20.5548 60.6916 20.9186 60.745 21.1294 60.8576C25.465 63.1697 30.0809 64.3565 35.096 64.3304ZM13.1341 54.3946C13.3484 54.9187 13.6533 55.023 14.0737 54.9578C15.0087 54.812 15.9095 54.5487 16.7808 54.1859C17.903 53.72 19.0122 53.2196 20.1391 52.7631C22.453 51.8253 24.788 51.8039 27.1465 52.6137C28.4854 53.0738 29.7418 53.7223 31.0394 54.2784C33.6288 55.3882 36.2217 55.3692 38.8146 54.3282C39.9603 53.8682 41.0754 53.3311 42.2153 52.8568C43.9097 52.1513 45.6583 51.8182 47.4988 52.1087C48.8741 52.3256 50.1306 52.8556 51.3587 53.484C52.707 54.1729 54.0776 54.8072 55.5954 55.0218C55.9216 55.0681 56.2631 55.1511 56.5539 54.908C56.6681 54.8131 56.8412 54.7171 56.7765 54.5321C56.7211 54.3721 56.5445 54.4112 56.4138 54.4065C54.7547 54.3484 53.2251 53.8302 51.7555 53.0916C51.2304 52.8272 50.6958 52.5794 50.1682 52.3185C47.6636 51.0783 45.1284 50.9906 42.5591 52.1051C41.3898 52.6126 40.2335 53.1508 39.0477 53.6168C36.3006 54.6946 33.5452 54.7337 30.8075 53.5646C29.942 53.1959 29.0812 52.8141 28.2287 52.4146C25.4486 51.108 22.6625 50.9669 19.8259 52.2604C17.7052 53.2279 15.5927 54.2452 13.1341 54.3946ZM24.0344 53.6832C24.3252 53.7164 24.8728 53.7579 25.4132 53.8421C27.0818 54.0994 28.609 54.7871 30.0927 55.5411C33.3167 57.1809 36.5231 57.143 39.7637 55.6206C40.7563 55.1546 41.7607 54.7029 42.784 54.3128C44.2112 53.7686 45.6866 53.548 47.2233 53.7449C48.6269 53.9251 49.9151 54.4159 51.1621 55.0515C52.1759 55.5672 53.1886 56.0854 54.2872 56.4043C54.4944 56.4648 54.704 56.5489 54.9183 56.4861C55.0903 56.4351 55.261 56.3213 55.2728 56.1316C55.2869 55.9028 55.0597 55.9383 54.9219 55.9087C53.4488 55.5992 52.0829 55.004 50.777 54.2796C47.7767 52.6173 44.7705 52.6149 41.7172 54.1219C40.8387 54.5559 39.9368 54.9471 39.0242 55.3004C36.2523 56.3758 33.4804 56.3912 30.7297 55.2056C29.8843 54.8416 29.0388 54.4729 28.2075 54.0745C25.2755 52.6707 22.3635 52.6825 19.4279 54.0887C18.0149 54.7657 16.5877 55.4249 15.0452 55.7735C14.8933 55.8079 14.6295 55.7889 14.679 56.0498C14.719 56.2561 14.9215 56.3675 15.1323 56.3509C15.3443 56.3343 15.5562 56.2834 15.7611 56.2193C16.868 55.8743 17.9124 55.374 18.9687 54.9044C20.5065 54.2227 22.0797 53.7022 24.0344 53.6832ZM53.8421 57.4406C53.7997 57.2556 53.6478 57.2402 53.5253 57.1951C52.3996 56.7837 51.3375 56.2336 50.2683 55.6965C47.6495 54.378 45.0083 54.3258 42.3366 55.5281C41.318 55.9858 40.2994 56.4458 39.2668 56.8726C36.3936 58.0618 33.5216 58.0879 30.6485 56.8442C29.3897 56.3 28.1698 55.6644 26.8686 55.2198C24.9363 54.5582 22.9828 54.4444 21.0529 55.1499C19.4538 55.7344 17.8948 56.4316 16.3181 57.0801C16.1944 57.1311 16.0308 57.1679 16.092 57.3576C16.1367 57.4975 16.2674 57.603 16.4017 57.5935C16.5913 57.5805 16.7855 57.5236 16.9634 57.4489C17.9937 57.0161 19.0146 56.5632 20.0461 56.1363C22.5401 55.1072 25.0482 55.1321 27.5469 56.1008C28.5325 56.4825 29.5039 56.9106 30.4554 57.3706C33.3109 58.7531 36.1852 58.8052 39.0913 57.5591C40.0639 57.1418 41.026 56.7019 41.9962 56.2798C44.2877 55.2827 46.6298 55.023 49.039 55.8115C49.9739 56.1174 50.8465 56.5632 51.7249 56.9995C52.2159 57.2437 52.7176 57.4666 53.2215 57.6824C53.4959 57.7974 53.7149 57.7097 53.8421 57.4406ZM23.8071 56.3877C22.7709 56.3284 21.7735 56.5217 20.815 56.8963C19.8294 57.2817 18.8592 57.7061 17.8889 58.1282C17.7323 58.1958 17.4155 58.2041 17.5144 58.4744C17.6122 58.7412 17.8865 58.714 18.1232 58.6132C18.7367 58.3535 19.3467 58.082 19.9637 57.8306C22.3705 56.8537 24.7974 56.7967 27.2537 57.6587C28.423 58.069 29.5357 58.6049 30.6532 59.1289C33.451 60.4391 36.2547 60.4403 39.0772 59.2392C40.2135 58.7555 41.3333 58.2314 42.4767 57.7654C45.0625 56.7137 47.6354 56.7801 50.18 57.9267C50.7334 58.1768 51.2763 58.4507 51.8262 58.7104C52.0134 58.7993 52.2312 58.8598 52.3372 58.6262C52.4432 58.3926 52.203 58.3334 52.057 58.2587C51.4105 57.929 50.7617 57.6042 50.1082 57.2876C47.6377 56.0913 45.1355 56.0024 42.6062 57.0896C41.4711 57.5769 40.3512 58.0998 39.2079 58.5657C36.2205 59.7834 33.2532 59.7443 30.3164 58.3737C29.5169 58.0002 28.715 57.6314 27.9037 57.2852C26.5966 56.7292 25.2531 56.313 23.8071 56.3877ZM23.8071 58.0488C22.2375 57.9741 20.8068 58.5053 19.3996 59.1266C19.223 59.2048 18.8721 59.219 18.9534 59.4823C19.0429 59.768 19.3549 59.7301 19.6128 59.6293C19.8683 59.5297 20.125 59.4336 20.3829 59.3376C22.5589 58.5325 24.7491 58.5124 26.9523 59.2226C28.2252 59.6328 29.4286 60.2126 30.6332 60.7806C33.4286 62.1002 36.2311 62.1097 39.056 60.9086C40.1746 60.4332 41.278 59.9221 42.4001 59.4538C44.1829 58.708 46.034 58.5254 47.9321 58.8633C48.7846 59.0151 49.5948 59.3127 50.3802 59.6803C50.5933 59.7799 50.8382 59.8202 50.9607 59.5996C51.1208 59.3115 50.7947 59.2997 50.6522 59.2238C48.004 57.8081 45.2921 57.5888 42.5073 58.7993C41.3922 59.2843 40.2865 59.7893 39.1608 60.2482C36.2971 61.4137 33.4369 61.4172 30.5943 60.1557C29.7524 59.7822 28.9152 59.3957 28.0709 59.0258C26.7144 58.4329 25.319 57.9943 23.8071 58.0488Z" fill="#687FA4"></path><path d="M51.3469 12.1241C51.5047 12.3932 51.4434 12.6315 51.4446 12.8568C51.4493 16.2288 51.4222 19.6008 51.4599 22.9728C51.4776 24.5474 50.923 25.854 49.9091 27.0017C49.2014 27.802 48.3913 28.4778 47.4987 29.0636C44.9718 30.7211 42.4495 32.3846 39.9285 34.0528C39.3562 34.4322 38.8216 34.8721 38.234 35.2242C36.4571 36.2878 35.8178 37.9382 35.8083 39.9135C35.793 43.1278 35.7954 46.3421 35.7907 49.5565C35.7895 50.1481 35.793 50.7397 35.7895 51.3314C35.786 52.2254 35.7389 52.2787 35.0005 52.274C34.2987 52.2704 34.2505 52.2171 34.2505 51.3539C34.2493 45.3391 34.2493 39.3254 34.2493 33.3106C34.2493 32.502 34.2728 31.6934 34.2446 30.8847C34.1504 28.1079 35.2808 25.9239 37.3944 24.2071C39.262 22.6907 41.3639 21.5346 43.381 20.2482C44.9365 19.257 46.5296 18.3215 47.9721 17.1643C49.5253 15.9182 50.6404 14.3519 51.2433 12.4335C51.2715 12.3458 51.3021 12.2581 51.3469 12.1241Z" fill="#687FA4"></path><path d="M18.2716 12.0671C18.5036 13.1461 18.9334 14.033 19.4738 14.8819C20.4335 16.3889 21.7782 17.4986 23.1124 18.6297C25.5699 20.7129 28.1133 22.6871 30.6402 24.6825C32.4183 26.0863 33.2402 27.9206 33.2379 30.1804C33.2284 37.2789 33.2367 44.3775 33.2355 51.4748C33.2355 52.1862 32.5773 52.568 31.9732 52.2076C31.6753 52.0297 31.7718 51.7167 31.7707 51.4558C31.7636 48.3601 31.7636 45.2643 31.7671 42.1686C31.7683 41.4785 31.753 40.7909 31.6635 40.1044C31.3821 37.9548 30.5696 36.1028 28.8693 34.6824C26.5613 32.7545 24.1403 30.9796 21.7323 29.1845C19.7117 27.6799 18.4824 25.6963 18.1998 23.1554C18.1644 22.8424 18.155 22.5258 18.1538 22.2116C18.1503 19.0767 18.1503 15.9419 18.155 12.807C18.155 12.5971 18.1008 12.379 18.2716 12.0671Z" fill="#687FA4"></path><path d="M51.4235 26.4871C51.434 26.6602 51.4529 26.8345 51.4541 27.0076C51.4552 29.3149 51.4517 31.6222 51.4529 33.9295C51.4529 36.4537 50.545 38.4706 48.3619 39.8684C46.2812 41.2023 44.2512 42.6168 42.2082 44.0099C41.723 44.3407 41.2626 44.713 40.8069 45.0853C39.1148 46.4654 38.0751 48.1597 38.2788 50.4504C38.3047 50.7433 38.2835 51.0421 38.2823 51.3373C38.2788 52.2562 38.174 52.3392 37.2555 52.274C36.9164 52.2502 36.7492 52.1092 36.741 51.7724C36.7374 51.6147 36.7315 51.457 36.7315 51.2994C36.7315 48.1242 36.7245 44.949 36.7362 41.775C36.7398 40.8288 36.8128 39.8862 37.0342 38.959C37.3144 37.7817 37.9138 36.8403 38.9005 36.117C41.6559 34.0931 44.5632 32.3016 47.4058 30.4081C47.8473 30.114 48.2877 29.82 48.7281 29.526C49.8762 28.7577 50.8064 27.7973 51.4235 26.4871Z" fill="#687FA4"></path></svg>