<svg xmlns="http://www.w3.org/2000/svg" width="112" height="66" viewBox="0 0 112 66" fill="none"><path d="M7.74237 62.9389C7.74237 63.3021 7.66684 63.6399 7.52206 63.9458C7.37728 64.2581 7.16956 64.5194 6.91148 64.7425C6.6534 64.9655 6.35126 65.1312 5.99876 65.2396C5.64627 65.3543 5.27488 65.3925 4.86573 65.3543C4.46288 65.3161 4.04114 65.195 3.60052 64.9847C3.15989 64.7743 2.72557 64.4621 2.28494 64.0478C2.27235 64.2709 2.222 64.4621 2.14646 64.6214C2.07093 64.7807 1.97021 64.9146 1.85691 65.0165C1.74361 65.1249 1.61142 65.2014 1.46664 65.2587C1.32187 65.3097 1.17709 65.3479 1.03232 65.3607C0.88754 65.3734 0.742764 65.3671 0.604283 65.3416C0.465801 65.3161 0.339909 65.2778 0.232901 65.2205L0 64.1115C0.0755353 64.1498 0.151071 64.1561 0.232901 64.1434C0.314731 64.1306 0.390266 64.0924 0.453212 64.0414C0.522453 63.9904 0.579104 63.914 0.623166 63.8247C0.667229 63.7355 0.686113 63.6272 0.686113 63.5061L0.704996 58.2928C0.704996 58.1717 0.686113 58.0633 0.64205 57.9741C0.597988 57.8849 0.541336 57.8084 0.472096 57.7574C0.402855 57.7064 0.32732 57.6682 0.24549 57.6554C0.16366 57.6427 0.0881245 57.6554 0.0125892 57.6873L0.24549 56.572C0.321025 56.5338 0.421739 56.5083 0.553926 56.4764C0.686113 56.4509 0.830889 56.4382 0.981959 56.4445C1.13303 56.4509 1.2904 56.4764 1.44776 56.5274C1.60513 56.5784 1.74361 56.6612 1.87579 56.7823C2.00169 56.9034 2.10869 57.0627 2.18423 57.2667C2.26606 57.4706 2.30383 57.7255 2.30383 58.0315L2.28494 62.6138C2.65633 63.0026 3.01512 63.3021 3.34873 63.5124C3.68235 63.7228 3.99078 63.863 4.28034 63.9394C4.56359 64.0096 4.82167 64.0287 5.05457 63.9841C5.28747 63.9458 5.48261 63.863 5.63997 63.7546C5.80363 63.6399 5.92323 63.4997 6.01135 63.3404C6.09948 63.1747 6.14354 63.009 6.14354 62.8369V56.572H7.74237V62.9389Z" fill="#687FA4"></path><path d="M17.115 56.572C17.1276 56.8397 17.115 57.0946 17.071 57.3368C17.0332 57.579 16.9577 57.8084 16.8444 58.0315C16.7374 58.2545 16.5863 58.4712 16.4038 58.6815C16.2212 58.8918 15.9946 59.1022 15.7239 59.3125C15.9065 59.3762 16.0764 59.4846 16.2338 59.6184C16.3912 59.7586 16.5296 59.9179 16.6429 60.1028C16.7563 60.2876 16.8507 60.4915 16.9136 60.7146C16.9766 60.9377 17.0143 61.1671 17.0143 61.3965V65.2205H15.4155V61.3009C15.4155 61.1607 15.3966 61.0141 15.3651 60.8675C15.3337 60.721 15.277 60.5871 15.2078 60.4597C15.1322 60.3322 15.0441 60.2238 14.9308 60.1282C14.8175 60.0327 14.6853 59.9689 14.5343 59.9371C14.421 59.9944 14.2825 60.0581 14.1251 60.1155C13.9677 60.1729 13.7978 60.2302 13.6215 60.2876C13.4453 60.3386 13.2564 60.3959 13.0676 60.4469C12.8788 60.4979 12.6899 60.5425 12.5074 60.5871C12.3248 60.6254 12.1549 60.6636 11.9912 60.6955C11.8276 60.7273 11.6891 60.7465 11.5632 60.7656V65.2332H9.96437V58.2928C9.96437 58.1717 9.93919 58.0633 9.90142 57.9741C9.86365 57.8849 9.80071 57.8084 9.73146 57.7574C9.66222 57.7064 9.58669 57.6682 9.50486 57.6554C9.42303 57.6427 9.34749 57.6554 9.27196 57.6873L9.50486 56.572C9.58039 56.5338 9.68111 56.5083 9.81329 56.4764C9.94548 56.4509 10.0903 56.4382 10.2413 56.4445C10.3924 56.4509 10.5498 56.4764 10.7071 56.5274C10.8645 56.5784 11.003 56.6612 11.1352 56.7823C11.2611 56.9034 11.3681 57.0627 11.4436 57.2667C11.5191 57.4706 11.5632 57.7255 11.5632 58.0315V59.5674C12.2934 59.4272 12.9039 59.2551 13.4075 59.0639C13.9111 58.8727 14.3139 58.6497 14.6287 58.4011C14.9434 58.1525 15.1637 57.8721 15.3085 57.5726C15.447 57.2667 15.5162 56.9289 15.5162 56.5656H17.115V56.572Z" fill="#687FA4"></path><path d="M21.408 65.2205V58.9556C21.408 58.6815 21.3576 58.4394 21.2632 58.229C21.1688 58.0187 21.0051 57.8594 20.7722 57.7574C20.5393 57.6555 20.2309 57.6172 19.8406 57.6491C19.4503 57.6746 18.9657 57.7957 18.374 57.9996L18.0844 56.9863C18.4495 56.8333 18.8209 56.7058 19.2049 56.6166C19.5888 56.5274 19.9602 56.47 20.3253 56.4573C20.6904 56.4445 21.0303 56.47 21.3576 56.5401C21.6786 56.6102 21.9619 56.7313 22.2074 56.897C22.4529 57.0691 22.6417 57.2922 22.7865 57.5662C22.9313 57.8467 23.0005 58.1844 23.0005 58.5859V65.2205H21.408Z" fill="#687FA4"></path><path d="M31.2905 61.0269C31.2905 61.524 31.2276 61.9765 31.1143 62.3971C30.9947 62.8178 30.831 63.1874 30.617 63.5188C30.403 63.8502 30.1575 64.137 29.8616 64.3856C29.5721 64.6278 29.2573 64.8253 28.9111 64.9783C28.5712 65.1313 28.2061 65.2332 27.8222 65.2906C27.4382 65.3479 27.0542 65.3479 26.6577 65.3033C26.2674 65.2523 25.8708 65.1504 25.4806 64.9974C25.0903 64.8445 24.7126 64.6341 24.3475 64.3665L25.0022 63.232C25.3736 63.4933 25.745 63.6782 26.1226 63.7865C26.494 63.9012 26.8591 63.9395 27.2053 63.9203C27.5515 63.9012 27.8788 63.812 28.1873 63.6654C28.4894 63.5188 28.7538 63.3213 28.9804 63.0663C29.207 62.8114 29.3832 62.5119 29.5091 62.1613C29.6413 61.8108 29.7043 61.4157 29.7043 60.9823C29.7043 60.4342 29.6287 59.9562 29.4777 59.561C29.3266 59.1595 29.1252 58.8345 28.8797 58.5732C28.6279 58.3119 28.3446 58.1207 28.0173 57.9996C27.69 57.8721 27.3564 57.8084 27.0039 57.8084C26.6514 57.8084 26.3052 57.8594 25.9527 57.9741C25.6002 58.0888 25.2792 58.2545 24.9833 58.4712L24.3853 57.4388C24.7504 57.1775 25.1344 56.9671 25.5246 56.8142C25.9149 56.6549 26.3052 56.5529 26.6954 56.4955C27.0857 56.4445 27.4697 56.4382 27.8474 56.4892C28.225 56.5401 28.5838 56.6357 28.93 56.7887C29.2699 56.9417 29.5847 57.1392 29.8679 57.3942C30.1575 57.6491 30.403 57.9486 30.6107 58.3055C30.8184 58.6624 30.9821 59.0639 31.1017 59.5164C31.2339 59.9689 31.2905 60.4724 31.2905 61.0269Z" fill="#687FA4"></path><path d="M31.0387 55.0934C30.6736 55.036 30.2834 54.9787 29.8805 54.9341C29.4714 54.8895 29.0622 54.8512 28.6342 54.8257C28.2124 54.8002 27.7781 54.7811 27.3501 54.7811C26.9158 54.7747 26.494 54.7875 26.0723 54.8066C25.6568 54.8257 25.2477 54.864 24.8574 54.9086C24.4671 54.9532 24.0958 55.0169 23.7559 55.0934L23.6614 53.8442C24.0328 53.7678 24.4231 53.704 24.8322 53.6467C25.2414 53.5893 25.6631 53.5511 26.0912 53.5192C26.5192 53.4874 26.9598 53.4746 27.3941 53.4682C27.8348 53.4682 28.2691 53.4746 28.6971 53.5001C29.1252 53.5256 29.5469 53.5638 29.9498 53.6212C30.3589 53.6785 30.7429 53.7487 31.1143 53.8379L31.0387 55.0934Z" fill="#687FA4"></path><path d="M38.7119 65.2205V58.9556C38.7119 58.7835 38.6741 58.6114 38.5923 58.4457C38.5167 58.28 38.3971 58.1334 38.2461 58.0187C38.095 57.904 37.9061 57.8275 37.6858 57.7893C37.4655 57.751 37.2137 57.7829 36.9242 57.8721C36.6409 57.9614 36.3199 58.1271 35.9737 58.3756C35.6275 58.6178 35.2561 58.962 34.8533 59.4017V65.2205H33.2544V58.2928C33.2544 58.1717 33.2292 58.0633 33.1915 57.9741C33.1474 57.8849 33.0908 57.8084 33.0215 57.7574C32.9523 57.7064 32.8767 57.6682 32.8012 57.6554C32.7194 57.6427 32.6438 57.6554 32.5683 57.6873L32.8012 56.572C32.8767 56.5338 32.9775 56.5083 33.1096 56.4764C33.2418 56.4509 33.3866 56.4382 33.5377 56.4445C33.6888 56.4509 33.8461 56.4764 34.0035 56.5274C34.1609 56.5784 34.2993 56.6612 34.4315 56.7823C34.5574 56.9034 34.6644 57.0627 34.74 57.2667C34.8218 57.4706 34.8596 57.7255 34.8596 58.0315C35.275 57.5662 35.703 57.2157 36.1311 56.9671C36.5654 56.7186 36.9808 56.5656 37.3837 56.4955C37.7865 56.4254 38.1705 56.4382 38.523 56.5274C38.8755 56.6166 39.1902 56.7632 39.4546 56.9608C39.719 57.1583 39.9267 57.4069 40.0841 57.7064C40.2352 57.9996 40.317 58.3183 40.317 58.6624V65.2141H38.7119V65.2205Z" fill="#687FA4"></path><path d="M49.3875 62.3908C49.3875 62.7732 49.3183 63.1237 49.1861 63.4296C49.0539 63.7419 48.8714 64.0096 48.6385 64.2454C48.4056 64.4812 48.1412 64.6787 47.8327 64.8381C47.5243 64.9974 47.197 65.1185 46.8508 65.2014C46.5046 65.2842 46.1521 65.3288 45.787 65.3352C45.4219 65.3416 45.0694 65.3097 44.7232 65.2396C44.377 65.1695 44.0497 65.0611 43.7412 64.9082C43.4328 64.7616 43.1621 64.5704 42.9355 64.341C42.7026 64.1115 42.5201 63.8502 42.3879 63.5379C42.2557 63.232 42.1865 62.8815 42.1865 62.4991C42.1865 62.1932 42.2242 61.9191 42.2935 61.6833C42.3627 61.4475 42.4634 61.2499 42.583 61.0779C42.7026 60.9122 42.8474 60.7783 43.0174 60.6764C43.181 60.5744 43.3636 60.5043 43.5587 60.466V60.3832C43.3636 60.3513 43.1873 60.2876 43.0237 60.192C42.86 60.0964 42.7215 59.9689 42.6019 59.8096C42.4823 59.6503 42.3879 59.4527 42.325 59.2233C42.262 58.9938 42.2242 58.7198 42.2242 58.4139C42.2242 58.1398 42.2746 57.8849 42.3753 57.6491C42.476 57.4133 42.6271 57.2029 42.8222 57.0245C43.0174 56.846 43.2566 56.7058 43.5398 56.6039C43.8231 56.5019 44.1504 56.4509 44.5155 56.4509C44.6288 56.4509 44.7547 56.47 44.8806 56.5019C45.0065 56.5338 45.1198 56.5784 45.2079 56.6293L45.4219 57.6809C45.2645 57.6554 45.0946 57.6491 44.9183 57.6618C44.7421 57.6746 44.5784 57.7192 44.4274 57.7957C44.2763 57.8721 44.1504 57.9868 44.056 58.1398C43.9553 58.2928 43.9049 58.4967 43.9049 58.7516C43.9049 58.9301 43.9427 59.0894 43.9993 59.2233C44.0623 59.3571 44.1504 59.4718 44.2637 59.5674C44.377 59.663 44.5218 59.7459 44.698 59.8096C44.8743 59.8733 45.0757 59.9243 45.3086 59.9626L45.403 60.67C45.1575 60.7337 44.9435 60.8229 44.7547 60.9313C44.5658 61.046 44.4085 61.1735 44.2889 61.3201C44.163 61.4666 44.0749 61.6196 44.0119 61.7917C43.949 61.9637 43.9238 62.1358 43.9301 62.3079C43.9301 62.6011 43.9867 62.8624 44.1 63.0918C44.2133 63.3149 44.3581 63.5061 44.5344 63.659C44.7169 63.812 44.9183 63.9267 45.1512 64.0096C45.3841 64.0924 45.6233 64.1306 45.8625 64.137C46.1017 64.1434 46.3409 64.1052 46.5738 64.0351C46.8067 63.9649 47.0144 63.8502 47.1907 63.6973C47.3732 63.5443 47.518 63.3531 47.625 63.1173C47.7383 62.8815 47.795 62.6074 47.795 62.2888V56.5847H49.3938V62.3908H49.3875Z" fill="#687FA4"></path><path d="M53.7812 65.2205V58.9556C53.7812 58.6815 53.7308 58.4394 53.6364 58.229C53.542 58.0187 53.3783 57.8594 53.1454 57.7574C52.9125 57.6555 52.6041 57.6172 52.2138 57.6491C51.8235 57.6746 51.3388 57.7957 50.7471 57.9996L50.4576 56.9863C50.8227 56.8333 51.1941 56.7058 51.578 56.6166C51.962 56.5274 52.3334 56.47 52.6985 56.4573C53.0636 56.4445 53.4035 56.47 53.7308 56.5401C54.0518 56.6102 54.3351 56.7313 54.5806 56.897C54.8261 57.0691 55.0149 57.2922 55.1597 57.5662C55.3044 57.8467 55.3737 58.1844 55.3737 58.5859V65.2205H53.7812Z" fill="#687FA4"></path><path d="M63.0468 65.2205V60.9695C62.3922 60.9504 61.8131 60.9695 61.3095 61.0269C60.8059 61.0906 60.3905 61.199 60.0506 61.3647C59.717 61.524 59.4715 61.7407 59.3141 62.002C59.1568 62.2633 59.1001 62.5819 59.1379 62.958C59.1505 63.1109 59.1945 63.2448 59.2638 63.3595C59.333 63.4742 59.4148 63.5634 59.5155 63.6399C59.6163 63.7164 59.7296 63.7737 59.8492 63.812C59.9688 63.8502 60.0946 63.8821 60.2205 63.8948C60.3464 63.9076 60.466 63.914 60.5793 63.9012C60.6926 63.8885 60.7996 63.8757 60.8878 63.8502L60.636 65.1631C60.4157 65.2651 60.1828 65.3288 59.9373 65.3416C59.6918 65.3543 59.4526 65.3352 59.2197 65.2778C58.9868 65.2205 58.7602 65.1185 58.5399 64.9847C58.3259 64.8508 58.1307 64.6851 57.9671 64.4875C57.8034 64.29 57.6649 64.0669 57.5642 63.812C57.4635 63.5571 57.4068 63.2766 57.3943 62.9771C57.3817 62.531 57.432 62.1422 57.5642 61.8108C57.6901 61.4794 57.8789 61.1926 58.1244 60.9568C58.3699 60.721 58.6721 60.5298 59.0183 60.3768C59.3645 60.2302 59.7547 60.1091 60.1828 60.0327C60.6108 59.9498 61.064 59.9052 61.5487 59.8861C62.0334 59.867 62.537 59.8733 63.0594 59.8988L63.0405 59.7204C63.0531 59.3252 62.9839 58.9874 62.8391 58.7198C62.6943 58.4457 62.4866 58.2354 62.2285 58.0824C61.9641 57.9295 61.6557 57.8339 61.2969 57.7957C60.9381 57.7574 60.5542 57.7702 60.1387 57.8339C59.7233 57.8976 59.2952 58.0187 58.842 58.1844C58.3951 58.3501 57.9419 58.5668 57.5013 58.8217L57.2117 57.5089C57.7782 57.1838 58.351 56.9289 58.9427 56.7504C59.5281 56.572 60.1009 56.47 60.6486 56.4382C61.1962 56.4063 61.7187 56.4445 62.2033 56.5592C62.688 56.674 63.1161 56.8524 63.4749 57.101C63.8399 57.3495 64.1232 57.6682 64.3309 58.0506C64.5386 58.433 64.6457 58.8855 64.6457 59.3953V65.2141H63.0468V65.2205Z" fill="#687FA4"></path><path d="M66.6725 53.6148C66.5152 53.7614 66.32 53.9016 66.0934 54.0355C65.8668 54.1693 65.6213 54.2968 65.3569 54.4115C65.0926 54.5262 64.8093 54.6282 64.5198 54.711C64.2302 54.8002 63.9344 54.8703 63.6448 54.9213C63.3553 54.9723 63.0657 55.0042 62.7887 55.0169C62.5118 55.0297 62.2474 55.0106 62.0082 54.9723C61.769 54.9341 61.555 54.864 61.3724 54.7684C61.1899 54.6728 61.0388 54.5389 60.9318 54.3796C60.8248 54.2139 60.7682 54.0163 60.7493 53.7805C60.7367 53.5447 60.7808 53.2707 60.8878 52.9584L62.4488 52.6461C62.3859 52.8437 62.367 53.0094 62.3985 53.1368C62.4362 53.2707 62.5055 53.3726 62.6125 53.4491C62.7195 53.5256 62.858 53.5766 63.0342 53.5957C63.2042 53.6148 63.393 53.6212 63.6007 53.6021C63.8085 53.583 64.0288 53.5447 64.2617 53.4874C64.4946 53.43 64.7275 53.3599 64.9604 53.277C65.1933 53.1942 65.4199 53.0986 65.6465 52.9839C65.8668 52.8755 66.0745 52.7608 66.2571 52.6397L66.6725 53.6148Z" fill="#687FA4"></path><path d="M74.012 62.3908C74.012 62.7732 73.9428 63.1237 73.8106 63.4296C73.6784 63.7419 73.4959 64.0096 73.263 64.2454C73.0301 64.4812 72.7657 64.6787 72.4573 64.8381C72.1488 64.9974 71.8215 65.1185 71.4753 65.2014C71.1291 65.2842 70.7766 65.3288 70.4115 65.3352C70.0464 65.3416 69.6939 65.3097 69.3477 65.2396C69.0015 65.1695 68.6742 65.0611 68.3658 64.9082C68.0573 64.7616 67.7867 64.5704 67.5601 64.341C67.3272 64.1115 67.1446 63.8502 67.0124 63.5379C66.8802 63.232 66.811 62.8815 66.811 62.4991C66.811 62.1932 66.8488 61.9191 66.918 61.6833C66.9873 61.4475 67.088 61.2499 67.2076 61.0779C67.3272 60.9122 67.4719 60.7783 67.6419 60.6764C67.8056 60.5744 67.9881 60.5043 68.1832 60.466V60.3832C67.9881 60.3513 67.8118 60.2876 67.6482 60.192C67.4845 60.0964 67.346 59.9689 67.2265 59.8096C67.1069 59.6503 67.0124 59.4527 66.9495 59.2233C66.8865 58.9938 66.8488 58.7198 66.8488 58.4139C66.8488 58.1398 66.8991 57.8849 66.9998 57.6491C67.1006 57.4133 67.2516 57.2029 67.4468 57.0245C67.6419 56.846 67.8811 56.7058 68.1643 56.6039C68.4476 56.5019 68.7749 56.4509 69.14 56.4509C69.2533 56.4509 69.3792 56.47 69.5051 56.5019C69.631 56.5338 69.7443 56.5784 69.8324 56.6293L70.0464 57.6809C69.8891 57.6554 69.7191 57.6491 69.5429 57.6618C69.3666 57.6746 69.203 57.7192 69.0519 57.7957C68.9008 57.8721 68.7749 57.9868 68.6805 58.1398C68.5798 58.2928 68.5294 58.4967 68.5294 58.7516C68.5294 58.9301 68.5672 59.0894 68.6238 59.2233C68.6868 59.3571 68.7749 59.4718 68.8882 59.5674C69.0015 59.663 69.1526 59.7459 69.3226 59.8096C69.4988 59.8733 69.7002 59.9243 69.9331 59.9626L70.0275 60.67C69.7821 60.7337 69.568 60.8229 69.3792 60.9313C69.1904 61.046 69.033 61.1735 68.9134 61.3201C68.7875 61.4666 68.6994 61.6196 68.6364 61.7917C68.5735 61.9637 68.5483 62.1358 68.5546 62.3079C68.5546 62.6011 68.6113 62.8624 68.7246 63.0918C68.8379 63.3149 68.9826 63.5061 69.1589 63.659C69.3414 63.812 69.5429 63.9267 69.7758 64.0096C70.0087 64.0924 70.2479 64.1306 70.4871 64.137C70.7325 64.137 70.9654 64.1052 71.1983 64.0351C71.4312 63.9649 71.639 63.8502 71.8152 63.6973C71.9978 63.5443 72.1425 63.3531 72.2495 63.1173C72.3628 62.8815 72.4195 62.6074 72.4195 62.2888V56.5847H74.0183V62.3908H74.012Z" fill="#687FA4"></path><path d="M83.284 62.9389C83.284 63.3021 83.2085 63.6399 83.0637 63.9458C82.9189 64.2581 82.7112 64.5194 82.4531 64.7425C82.195 64.9655 81.8929 65.1312 81.5404 65.2396C81.1879 65.3543 80.8165 65.3925 80.4074 65.3543C80.0045 65.3161 79.5828 65.195 79.1421 64.9847C78.7015 64.7743 78.2672 64.4621 77.8266 64.0478C77.814 64.2709 77.7636 64.4621 77.6881 64.6214C77.6125 64.7807 77.5118 64.9146 77.3985 65.0165C77.2852 65.1249 77.153 65.2014 77.0083 65.2587C76.8635 65.3097 76.7187 65.3479 76.5739 65.3607C76.4292 65.3734 76.2844 65.3671 76.1459 65.3416C76.0074 65.3161 75.8815 65.2778 75.7745 65.2205L75.5416 64.1115C75.6172 64.1498 75.6927 64.1561 75.7745 64.1434C75.8564 64.1306 75.9319 64.0924 76.0011 64.0414C76.0704 63.9904 76.127 63.914 76.1711 63.8247C76.2151 63.7355 76.234 63.6272 76.234 63.5061L76.2529 58.2928C76.2529 58.1717 76.234 58.0633 76.19 57.9741C76.1459 57.8849 76.0893 57.8084 76.02 57.7574C75.9508 57.7064 75.8752 57.6682 75.7934 57.6554C75.7116 57.6427 75.636 57.6554 75.5605 57.6873L75.7934 56.572C75.8689 56.5338 75.9697 56.5083 76.1018 56.4764C76.234 56.4509 76.3788 56.4382 76.5299 56.4445C76.6809 56.4509 76.8383 56.4764 76.9957 56.5274C77.153 56.5784 77.2915 56.6612 77.4237 56.7823C77.5496 56.9034 77.6566 57.0627 77.7321 57.2667C77.814 57.4706 77.8517 57.7255 77.8517 58.0315L77.8329 62.6138C78.2042 63.0026 78.563 63.3021 78.8966 63.5124C79.2303 63.7228 79.5387 63.863 79.8283 63.9394C80.1115 64.0096 80.3696 64.0287 80.6025 63.9841C80.8354 63.9458 81.0305 63.863 81.1879 63.7546C81.3515 63.6399 81.4711 63.4997 81.5593 63.3404C81.6474 63.1747 81.6915 63.009 81.6915 62.8369V56.572H83.2903V62.9389H83.284Z" fill="#687FA4"></path><path d="M92.6567 56.572C92.6692 56.8397 92.6567 57.0946 92.6126 57.3368C92.5748 57.579 92.4993 57.8084 92.386 58.0315C92.2727 58.2545 92.1279 58.4712 91.9454 58.6815C91.7628 58.8918 91.5362 59.1022 91.2656 59.3125C91.4481 59.3762 91.6181 59.4846 91.7754 59.6184C91.9328 59.7586 92.0713 59.9179 92.1846 60.1028C92.2979 60.2876 92.3923 60.4915 92.4552 60.7146C92.5182 60.9377 92.5559 61.1671 92.5559 61.3965V65.2205H90.9571V61.3009C90.9571 61.1607 90.9382 61.0141 90.9068 60.8675C90.8753 60.721 90.8186 60.5871 90.7494 60.4597C90.6739 60.3322 90.5857 60.2238 90.4724 60.1282C90.3591 60.0327 90.2269 59.9689 90.0759 59.9371C89.9626 59.9944 89.8241 60.0581 89.6667 60.1155C89.5094 60.1729 89.3394 60.2302 89.1631 60.2876C88.9869 60.3386 88.7981 60.3959 88.6092 60.4469C88.4204 60.4979 88.2316 60.5425 88.049 60.5871C87.8665 60.6254 87.6965 60.6636 87.5328 60.6955C87.3692 60.7273 87.2307 60.7465 87.1048 60.7656V65.2332H85.506V58.2928C85.506 58.1717 85.4808 58.0633 85.443 57.9741C85.399 57.8849 85.3423 57.8084 85.2731 57.7574C85.2038 57.7064 85.1283 57.6682 85.0528 57.6554C84.9709 57.6427 84.8954 57.6554 84.8199 57.6873L85.0528 56.572C85.1283 56.5338 85.229 56.5083 85.3612 56.4764C85.4934 56.4509 85.6382 56.4382 85.7892 56.4445C85.9403 56.4509 86.0977 56.4764 86.255 56.5274C86.4124 56.5784 86.5509 56.6612 86.6831 56.7823C86.809 56.9034 86.916 57.0627 86.9915 57.2667C87.0733 57.4706 87.1111 57.7255 87.1111 58.0315V59.5674C87.8413 59.4272 88.4519 59.2551 88.9554 59.0639C89.459 58.8727 89.8618 58.6497 90.1766 58.4011C90.4913 58.1525 90.7116 57.8721 90.8564 57.5726C90.9949 57.2667 91.0641 56.9289 91.0641 56.5656H92.6567V56.572Z" fill="#687FA4"></path><path d="M92.8455 55.0934C92.4804 55.036 92.0902 54.9787 91.6873 54.9341C91.2781 54.8895 90.869 54.8512 90.441 54.8257C90.0192 54.8002 89.5849 54.7811 89.1569 54.7811C88.7225 54.7747 88.3008 54.7875 87.8791 54.8066C87.4636 54.8257 87.0545 54.864 86.6642 54.9086C86.2739 54.9532 85.9025 55.0169 85.5626 55.0934L85.4682 53.8442C85.8396 53.7678 86.2299 53.704 86.639 53.6467C87.0482 53.5893 87.4699 53.5511 87.8979 53.5192C88.3323 53.4937 88.7666 53.4746 89.2009 53.4682C89.6415 53.4682 90.0759 53.4746 90.5039 53.5001C90.9319 53.5256 91.3537 53.5638 91.7565 53.6212C92.1657 53.6785 92.5497 53.7487 92.921 53.8379L92.8455 55.0934Z" fill="#687FA4"></path><path d="M101.129 65.2205V59.7395C101.129 59.4272 101.073 59.1468 100.959 58.8918C100.846 58.6369 100.682 58.4202 100.475 58.2418C100.267 58.0633 100.021 57.9231 99.7318 57.8211C99.4423 57.7255 99.1275 57.6746 98.7813 57.6746C98.3344 57.6746 97.9315 57.7638 97.5853 57.9359C97.2328 58.1143 96.9433 58.3501 96.7041 58.656C96.4649 58.9619 96.2949 59.3125 96.1753 59.714C96.062 60.1155 96.018 60.5425 96.0432 60.9886C96.0558 61.4156 96.1124 61.7917 96.2068 62.104C96.3012 62.4162 96.4145 62.6839 96.5467 62.8942C96.6789 63.1109 96.8111 63.2766 96.9559 63.4041C97.1007 63.5252 97.2266 63.6144 97.3336 63.659L98.1078 61.2181C98.1456 61.097 98.1519 60.995 98.1267 60.8994C98.1015 60.8102 98.0511 60.7337 97.9882 60.6827C97.9253 60.6254 97.8434 60.5871 97.749 60.568C97.6546 60.5489 97.5665 60.5425 97.472 60.5553L97.856 59.4017C98.0323 59.3635 98.2148 59.3443 98.3848 59.3635C98.561 59.3762 98.7247 59.4144 98.8757 59.4782C99.0268 59.5419 99.1653 59.6184 99.2849 59.7267C99.4045 59.8287 99.5052 59.9498 99.5807 60.0836C99.6563 60.2175 99.7066 60.3704 99.7255 60.5298C99.7444 60.6955 99.7318 60.8675 99.6752 61.046L98.4036 65.2205C98.0574 65.3224 97.7175 65.3543 97.3902 65.3161C97.0629 65.2778 96.7545 65.1759 96.4649 65.0102C96.1754 64.8508 95.911 64.6341 95.6655 64.3728C95.42 64.1052 95.2123 63.7992 95.036 63.4551C94.8598 63.1109 94.7213 62.7285 94.6143 62.3143C94.5136 61.9 94.4569 61.473 94.4443 61.0205C94.4192 60.3449 94.501 59.7331 94.6961 59.1723C94.8913 58.6114 95.1745 58.1271 95.5522 57.7255C95.9299 57.324 96.3831 57.0054 96.9244 56.7823C97.4657 56.5592 98.07 56.4445 98.7373 56.4445C99.159 56.4445 99.5493 56.4891 99.9081 56.572C100.267 56.6612 100.594 56.7759 100.89 56.9289C101.186 57.0818 101.444 57.2603 101.671 57.4706C101.897 57.6746 102.086 57.904 102.243 58.1462C102.401 58.3884 102.514 58.6433 102.596 58.911C102.671 59.1786 102.715 59.4527 102.715 59.7204V65.2205H101.129Z" fill="#687FA4"></path><path d="M110.401 65.2205V60.9695C109.747 60.9504 109.167 60.9695 108.664 61.0269C108.16 61.0906 107.745 61.199 107.405 61.3647C107.071 61.524 106.826 61.7407 106.668 62.002C106.511 62.2633 106.454 62.5819 106.492 62.958C106.505 63.1109 106.549 63.2448 106.618 63.3595C106.687 63.4742 106.769 63.5634 106.87 63.6399C106.971 63.7164 107.084 63.7737 107.204 63.812C107.323 63.8502 107.449 63.8821 107.575 63.8948C107.701 63.9076 107.82 63.914 107.934 63.9012C108.047 63.8885 108.154 63.8757 108.242 63.8502L107.99 65.1631C107.77 65.2651 107.537 65.3288 107.292 65.3416C107.046 65.3543 106.807 65.3352 106.574 65.2778C106.341 65.2205 106.115 65.1185 105.894 64.9847C105.68 64.8508 105.485 64.6851 105.321 64.4875C105.158 64.29 105.019 64.0669 104.919 63.812C104.818 63.5571 104.761 63.2766 104.749 62.9771C104.736 62.531 104.786 62.1422 104.919 61.8108C105.044 61.4794 105.233 61.1926 105.479 60.9568C105.724 60.721 106.026 60.5298 106.373 60.3768C106.719 60.2302 107.109 60.1091 107.537 60.0327C107.965 59.9498 108.418 59.9052 108.903 59.8861C109.388 59.867 109.891 59.8733 110.414 59.8988L110.395 59.7204C110.407 59.3252 110.338 58.9874 110.193 58.7198C110.049 58.4457 109.841 58.2354 109.583 58.0824C109.319 57.9295 109.01 57.8339 108.651 57.7957C108.292 57.7574 107.909 57.7702 107.493 57.8339C107.078 57.8976 106.65 58.0187 106.196 58.1844C105.749 58.3501 105.296 58.5668 104.856 58.8217L104.566 57.5089C105.133 57.1838 105.705 56.9289 106.297 56.7504C106.882 56.572 107.455 56.47 108.003 56.4382C108.551 56.4063 109.073 56.4445 109.558 56.5592C110.042 56.674 110.47 56.8524 110.829 57.101C111.194 57.3495 111.478 57.6682 111.685 58.0506C111.893 58.433 112 58.8855 112 59.3953V65.2141H110.401V65.2205Z" fill="#687FA4"></path><path d="M78.4406 26.4617C79.4647 13.9211 70.2541 2.91432 57.8682 1.87744C45.4822 0.840571 34.6113 10.1662 33.5872 22.7069C32.5631 35.2475 41.7737 46.2542 54.1596 47.2911C66.5456 48.328 77.4165 39.0024 78.4406 26.4617Z" fill="white"></path><path d="M39.3665 31.7546C39.3476 31.6909 39.335 31.6462 39.3287 31.6144L39.8386 31.8183C39.8637 31.9394 39.87 32.0223 39.8763 32.0669C39.9078 32.3983 39.7945 32.6214 39.5238 32.7233L38.6615 33.0547C38.6552 33.0866 38.6552 33.1949 38.6552 33.3734C38.6552 33.5518 38.63 33.7622 38.5859 34.0043C38.5733 34.0681 38.5608 34.1318 38.5482 34.1955L40.04 33.6219L40.7009 34.1382L38.3971 35.0241L37.7425 34.5078C37.8432 34.3931 37.9754 34.2147 38.139 33.9661C38.1894 33.8641 38.2271 33.7048 38.2523 33.4945C38.2586 33.4308 38.2649 33.3352 38.2712 33.2077L37.7802 33.3925L37.1193 32.8635C37.1508 32.8444 37.1885 32.8125 37.2389 32.7743C37.4088 32.6341 37.5347 32.5066 37.6166 32.3919C37.6606 32.3346 37.7047 32.2326 37.7613 32.086C37.7865 32.0223 37.8117 31.9585 37.8306 31.8948C37.8809 31.9139 37.925 31.933 37.9565 31.9522C38.0446 32.0031 38.1138 32.0478 38.1705 32.0924C38.2649 32.1689 38.3342 32.239 38.3908 32.3091C38.3971 32.3154 38.4097 32.3282 38.4286 32.36L39.2595 32.0414C39.3728 32.0031 39.4042 31.9075 39.3665 31.7546ZM38.2271 32.4429C38.2334 32.4302 38.2271 32.3983 38.2083 32.3537C38.1768 32.2644 38.1453 32.2007 38.1201 32.1625C38.1138 32.1625 38.1075 32.1689 38.1013 32.1752C38.1075 32.2262 38.0824 32.2963 38.0446 32.3983C38.032 32.4302 38.0131 32.4748 37.9817 32.5385L38.2271 32.4429Z" fill="#687FA4"></path><path d="M41.2297 35.0495C41.2611 35.126 41.2737 35.1898 41.28 35.2344C41.2926 35.381 41.2486 35.4893 41.1415 35.5722C41.1101 35.5976 41.0849 35.6104 41.0723 35.6168C41.0157 35.6423 40.8646 35.6486 40.6254 35.6295C40.3862 35.6104 40.1722 35.6805 39.9896 35.8335C39.8512 35.9482 39.7882 36.1904 39.8071 36.5536L39.8889 37.0316C39.9204 37.0507 39.9456 37.0571 39.9645 37.0571C40.0274 37.0635 40.0903 37.0444 40.1533 36.9998C40.2729 36.9105 40.3673 36.7321 40.4491 36.458C40.4869 36.3369 40.5436 36.2477 40.6254 36.184C40.745 36.0948 40.9086 36.0629 41.1164 36.0884C41.1793 36.0948 41.2737 36.1203 41.3933 36.1585C41.3933 36.1457 41.387 36.133 41.387 36.1203C41.3682 36.031 41.3682 35.9482 41.387 35.8844C41.3933 35.8526 41.4059 35.8335 41.4185 35.8207C41.4248 35.8143 41.4374 35.8143 41.45 35.8143L42.1235 35.9545C42.0794 36.0374 42.0543 36.1075 42.0417 36.1585C42.0102 36.3178 42.0417 36.4708 42.1424 36.6046C42.2179 36.7066 42.3186 36.7831 42.4571 36.8341C42.5893 36.8914 42.7026 36.9042 42.797 36.8723C42.7593 36.885 42.7215 36.8978 42.69 36.9105C42.6082 36.9297 42.5327 36.936 42.4571 36.936C42.4445 36.936 42.3942 36.9233 42.3123 36.9042L42.1865 36.8787C42.1927 36.9169 42.199 36.9551 42.2053 36.9934C42.2179 37.14 42.2116 37.2738 42.1802 37.3885C42.1613 37.4586 42.1298 37.5096 42.0983 37.5351L40.8394 38.4784L40.1029 38.1342L41.5444 37.0699C41.6451 36.9934 41.6703 36.8468 41.6262 36.6301C41.6136 36.5728 41.5822 36.4963 41.5381 36.4007C41.5255 36.3816 41.5003 36.3369 41.4626 36.2668C41.45 36.2477 41.4185 36.2605 41.3682 36.2923C41.2486 36.3816 41.1227 36.5919 40.9905 36.9297C40.959 37.0061 40.9149 37.0635 40.852 37.1081C40.7261 37.2037 40.531 37.2483 40.2603 37.2356C40.0337 37.2228 39.8134 37.191 39.6057 37.1336C39.5364 37.1081 39.4357 37.0762 39.2972 37.0316C39.2846 37.0125 39.2658 36.9169 39.2469 36.7448C39.1776 36.1712 39.2658 35.7825 39.5238 35.5913C39.6183 35.5212 39.8008 35.4829 40.0589 35.4829C40.3232 35.4829 40.4932 35.4511 40.5687 35.3937C40.6695 35.3172 40.7009 35.2089 40.6569 35.0687C40.6443 35.0368 40.6254 34.9858 40.6002 34.9157L41.2297 35.0495Z" fill="#687FA4"></path><path d="M43.6594 38.5039L42.6963 37.6562L43.4328 37.6116L44.5343 38.5803L42.9166 40.4668L42.0983 40.3266L43.6594 38.5039Z" fill="#687FA4"></path><path d="M45.5289 39.173L46.7878 40.0525L45.403 42.0792L44.4588 41.9836C44.4399 41.9709 44.421 41.9518 44.3959 41.9263C44.2951 41.8307 44.2133 41.7223 44.1378 41.6012C44.0937 41.5311 44.0685 41.4292 44.056 41.3017C44.056 41.2443 44.0623 41.1806 44.0685 41.1232L44.6414 41.1041C44.6099 41.1551 44.591 41.1933 44.5784 41.2188C44.5406 41.3144 44.5406 41.3973 44.5721 41.4674C44.6288 41.5821 44.6854 41.6586 44.7547 41.7096C44.7735 41.7223 44.7861 41.7223 44.7924 41.716L45.9192 40.0717L44.868 39.3324L45.5289 39.173Z" fill="#687FA4"></path><path d="M45.9569 39.0137C46.001 39.0392 46.0891 39.052 46.2087 39.052C46.2528 39.052 46.3094 39.0456 46.3787 39.0392C46.2654 39.0711 46.1772 39.0902 46.108 39.1029C45.9003 39.1348 45.7366 39.1284 45.617 39.0711C45.5981 39.0647 45.573 39.0456 45.5415 39.0328C45.4156 38.9564 45.2834 38.8353 45.1575 38.6696C45.1072 38.5931 45.0631 38.5166 45.019 38.4401C45.0757 38.421 45.1575 38.4019 45.2645 38.3764C45.4408 38.3382 45.6422 38.3254 45.8625 38.3254C46.1835 38.3318 46.4479 38.3955 46.6682 38.523C46.983 38.7078 47.2599 39.0328 47.4865 39.4917C47.5117 39.5427 47.5495 39.6192 47.5935 39.7211L46.9767 39.8486C46.9829 39.7658 46.983 39.702 46.9704 39.651C46.9389 39.4853 46.8508 39.3069 46.706 39.1284C46.4983 38.8608 46.2968 38.6759 46.108 38.5612C45.9821 38.4847 45.8562 38.4338 45.7303 38.4019C45.6863 38.3891 45.6359 38.3828 45.5793 38.3764C45.5918 38.4592 45.6044 38.5357 45.617 38.6122C45.7114 38.797 45.8184 38.9309 45.9569 39.0137Z" fill="#687FA4"></path><path d="M47.5243 40.5433C47.6124 40.6389 47.6691 40.709 47.7068 40.76C47.8201 40.932 47.8516 41.0786 47.8075 41.1997C47.7824 41.2507 47.6816 41.3272 47.5117 41.4292C47.3543 41.5248 47.2473 41.6522 47.1844 41.8115C47.1529 41.8817 47.134 41.9709 47.1088 42.0665C47.0585 42.2768 47.0962 42.5253 47.2095 42.8249C47.2725 42.946 47.3417 43.0671 47.411 43.1945C47.4487 43.1754 47.4802 43.1563 47.4991 43.1436C47.562 43.0862 47.6187 43.0097 47.6565 42.9141C47.7194 42.7484 47.7383 42.5317 47.7068 42.2704C47.6942 42.1493 47.7068 42.0219 47.7635 41.888C47.8579 41.6458 48.053 41.4419 48.3552 41.2698C48.6195 41.1232 48.8021 41.0659 48.9028 41.1041L50.0044 41.5439L49.0916 43.8637L48.2733 44.0039L49.1609 41.7414L48.4496 41.4546C48.4118 41.4419 48.3866 41.4546 48.374 41.4993C48.3678 41.5694 48.3615 41.7988 48.3489 42.1812C48.3426 42.4043 48.3174 42.57 48.267 42.6847L48.2419 42.742C48.2356 42.7548 48.2293 42.7612 48.223 42.7675C48.0341 43.0989 47.6816 43.3156 47.1718 43.424C47.0837 43.4367 46.9955 43.4431 46.9074 43.4558C46.8885 43.4495 46.8319 43.373 46.7437 43.2391C46.4416 42.7803 46.3535 42.3851 46.4857 42.0474C46.5297 41.939 46.6556 41.8179 46.8696 41.6841C47.0837 41.5502 47.2033 41.4355 47.241 41.3399C47.2977 41.1997 47.2536 41.0786 47.1214 40.9639C47.1025 40.9512 47.0522 40.9129 46.9578 40.8492L47.5243 40.5433Z" fill="#687FA4"></path><path d="M51.2696 41.939C51.301 41.9326 51.3388 41.9326 51.3703 41.939C51.4647 41.9581 51.5654 42.0282 51.6787 42.143C51.7794 42.2513 51.8235 42.3087 51.8109 42.315L51.2885 42.6018C51.2822 42.5763 51.2759 42.5508 51.2696 42.5126C51.2255 42.3915 51.1185 42.3087 50.9485 42.2704C50.8164 42.2449 50.7408 42.2704 50.7219 42.3469C50.7094 42.417 50.7345 42.5062 50.8038 42.6146C50.873 42.7229 50.9422 42.8122 51.0241 42.8631C51.1311 42.9396 51.2444 42.9842 51.3703 43.0161C51.4584 43.0352 51.5528 43.0416 51.641 43.0352C51.6724 43.0288 51.7102 43.0225 51.748 43.0161C51.6347 43.048 51.5025 43.0926 51.3577 43.1499C50.9926 43.2901 50.7975 43.4367 50.766 43.5897C50.7282 43.7745 50.8856 43.9976 51.2444 44.2589C51.4269 44.3609 51.6158 44.4564 51.7983 44.552L52.2075 42.519L53.0006 42.2322L52.5474 44.4628L51.3199 44.8771C51.2822 44.8898 51.1563 44.8388 50.936 44.7369C50.2939 44.4182 50.0044 44.0932 50.0673 43.7681C50.061 43.7618 50.061 43.7554 50.0673 43.749C50.0988 43.5961 50.2373 43.4686 50.489 43.3794C50.5709 43.3475 50.6905 43.3156 50.8541 43.2838C50.4764 43.1945 50.2687 43.0161 50.2373 42.742C50.2373 42.7293 50.2373 42.7165 50.2435 42.6911C50.2687 42.5636 50.4009 42.417 50.6464 42.2513C50.8793 42.0856 51.087 41.9836 51.2696 41.939Z" fill="#687FA4"></path><path d="M54.7064 42.9651L53.4286 42.8823L53.9889 42.3915L55.4429 42.4871L55.2792 44.9791L54.5428 45.3678L54.7064 42.9651Z" fill="#687FA4"></path><path d="M57.0291 45.5654C56.9977 45.5527 56.9347 45.508 56.8403 45.4252C56.4815 45.1193 56.2864 44.8134 56.2612 44.5074C56.2234 44.0549 56.4123 43.6534 56.8277 43.3029C56.9473 43.2009 57.0166 43.1436 57.0354 43.1436L56.0283 43.2264L56.4123 42.6656L58.9616 42.4553L59.163 44.9472L58.4517 45.4443C58.4203 45.4061 58.3258 45.2722 58.1748 45.0364L57.7027 44.2844C57.5831 44.0868 57.4131 43.8829 57.1865 43.6662C57.0795 43.5897 56.9725 43.5068 56.8655 43.4304C56.8403 43.4877 56.8214 43.5387 56.7962 43.5961C56.7711 43.7427 56.7648 43.8829 56.7711 44.0295C56.7837 44.2015 56.8277 44.3417 56.897 44.4501C57.0229 44.654 57.1613 44.7942 57.2998 44.8898C57.3816 44.9408 57.4887 44.9727 57.6208 44.9791L57.0291 45.5654ZM57.4446 43.1117L57.6649 43.3411C57.7656 43.4431 57.8349 43.5196 57.8726 43.5578C57.8915 43.5833 58.0048 43.7108 58.2062 43.953C58.2503 44.004 58.3132 44.0741 58.3888 44.1633L58.3007 43.0416L57.4446 43.1117Z" fill="#687FA4"></path><path d="M57.9985 41.2571C57.9796 41.289 57.967 41.3208 57.9482 41.3527C57.9104 41.4356 57.8978 41.4993 57.9104 41.5503C57.9419 41.716 58.1496 41.767 58.5399 41.7032C58.7035 41.6714 58.8861 41.5758 59.0812 41.4101C59.2323 41.2762 59.3707 41.136 59.4966 40.9703C59.5281 40.9257 59.5848 40.8492 59.654 40.7473C59.6162 40.8237 59.5596 40.9321 59.484 41.0723C59.3456 41.3145 59.1567 41.5312 58.9364 41.7287C58.6469 41.9837 58.3447 42.143 58.0237 42.194C57.8223 42.2322 57.602 42.194 57.3691 42.092C57.2809 42.0346 57.1865 41.9773 57.0984 41.9135L57.9985 41.2571Z" fill="#687FA4"></path><path d="M60.3905 42.0538C60.4156 42.0283 60.4471 42.0155 60.4786 42.0028C60.573 41.9773 60.6926 41.99 60.8437 42.041C60.9822 42.0856 61.0451 42.1175 61.0388 42.1366L60.7052 42.6337C60.6926 42.6146 60.6674 42.5955 60.6485 42.5636C60.5541 42.4744 60.4219 42.4553 60.2583 42.4999C60.1261 42.5381 60.0757 42.5955 60.0946 42.672C60.1135 42.7421 60.1764 42.8058 60.2897 42.8695C60.403 42.9333 60.5038 42.9779 60.5982 42.9842C60.7241 42.997 60.85 42.9906 60.9759 42.9524C61.064 42.9269 61.1458 42.8886 61.2276 42.8377C61.2528 42.8185 61.2843 42.7994 61.3095 42.7676C61.2213 42.8504 61.1269 42.9524 61.0199 43.0671C60.7618 43.3603 60.6548 43.5833 60.6989 43.7363C60.7493 43.9147 60.9947 44.0422 61.4291 44.1059C61.6368 44.1059 61.8508 44.1059 62.0585 44.1059L61.4857 42.1111L62.0585 41.4802L62.6817 43.6662L61.7879 44.6094C61.7564 44.6349 61.6242 44.654 61.385 44.6604C60.6674 44.6795 60.2646 44.5329 60.1701 44.2079C60.1639 44.2079 60.1639 44.2015 60.1576 44.1952C60.1135 44.0422 60.1827 43.8638 60.359 43.6662C60.4156 43.6024 60.5101 43.5132 60.6422 43.4113C60.2646 43.5132 60.0002 43.4495 59.8491 43.2264C59.8428 43.2201 59.8365 43.2009 59.8302 43.1754C59.7925 43.048 59.8428 42.8568 59.9813 42.5955C60.1135 42.366 60.252 42.1812 60.3905 42.0538Z" fill="#687FA4"></path><path d="M63.179 41.41C63.1223 41.4355 63.072 41.4483 63.0405 41.461L63.1979 40.9321C63.3112 40.9002 63.393 40.8811 63.4371 40.8683C63.7644 40.8046 63.991 40.9002 64.1169 41.1615L64.5197 41.9964C64.5512 41.9964 64.6582 41.99 64.8345 41.9773C65.0107 41.9581 65.2184 41.9645 65.4639 41.99C65.5332 41.9964 65.5961 42.0028 65.6528 42.0155L64.9478 40.5624L65.3947 39.8486L66.4774 42.092L66.0367 42.7994C65.9171 42.7102 65.722 42.5891 65.4702 42.4489C65.3632 42.4106 65.2058 42.3852 64.9918 42.3788C64.9289 42.3788 64.8345 42.3788 64.7086 42.3852L64.9352 42.8631L64.4757 43.577C64.4505 43.5515 64.419 43.5132 64.375 43.4686C64.2239 43.3093 64.0854 43.1946 63.9658 43.1244C63.9029 43.0862 63.7959 43.048 63.6511 43.0034C63.5881 42.9842 63.5252 42.9651 63.4559 42.9524C63.4748 42.9014 63.4874 42.8568 63.5063 42.8185C63.5441 42.7293 63.5881 42.6528 63.6259 42.5891C63.6951 42.4871 63.7581 42.4106 63.821 42.3469C63.8273 42.3405 63.8399 42.3278 63.8714 42.3023L63.4811 41.4929C63.4245 41.3846 63.33 41.3591 63.179 41.41ZM63.9595 42.4999C63.9469 42.4935 63.9154 42.5062 63.8714 42.5254C63.7896 42.57 63.7266 42.6018 63.6888 42.6337C63.6951 42.6401 63.6951 42.6528 63.7014 42.6528C63.7518 42.6465 63.8273 42.6592 63.928 42.6911C63.9595 42.6974 64.0099 42.7166 64.0728 42.7421L63.9595 42.4999Z" fill="#687FA4"></path><path d="M66.4585 39.2941C66.534 39.2623 66.597 39.2432 66.641 39.2368C66.7858 39.2177 66.8928 39.2623 66.9746 39.3642C66.9998 39.3961 67.0124 39.4216 67.025 39.4343C67.0565 39.4917 67.0628 39.6447 67.0502 39.8868C67.0376 40.129 67.1068 40.3457 67.2642 40.5305C67.3838 40.6708 67.623 40.7281 67.9755 40.6962L68.4476 40.6006C68.4602 40.5688 68.4727 40.5433 68.4727 40.5242C68.479 40.4604 68.4602 40.3967 68.4098 40.333C68.3217 40.2183 68.1391 40.1163 67.8685 40.0462C67.7489 40.0143 67.6607 39.957 67.5978 39.8741C67.5034 39.753 67.4719 39.5873 67.4908 39.377C67.4971 39.3133 67.516 39.2177 67.5537 39.0902C67.5411 39.0902 67.5286 39.0966 67.5223 39.0966C67.4341 39.1157 67.3523 39.1157 67.2894 39.1029C67.2579 39.0966 67.2327 39.0902 67.2264 39.0774C67.2201 39.0711 67.2201 39.0583 67.2201 39.0456L67.346 38.3573C67.4278 38.4019 67.4971 38.4274 67.5474 38.4338C67.7048 38.4656 67.8559 38.4274 67.9881 38.3254C68.0825 38.2489 68.158 38.1406 68.2084 38.0004C68.2587 37.8602 68.2713 37.7454 68.2398 37.6562C68.2524 37.6945 68.265 37.7327 68.2776 37.7646C68.2965 37.8474 68.3091 37.9239 68.3091 38.0004C68.3091 38.0131 68.3028 38.0641 68.2839 38.147L68.2587 38.2744C68.2965 38.268 68.3343 38.2617 68.372 38.2553C68.5168 38.2362 68.649 38.2426 68.7686 38.2744C68.8378 38.2935 68.8882 38.319 68.9134 38.3573L69.8701 39.6064L69.5491 40.3585L68.4602 38.9309C68.3846 38.8289 68.2398 38.8098 68.0258 38.8608C67.9692 38.8735 67.8936 38.9054 67.7992 38.9564C67.7803 38.9691 67.7363 38.9946 67.667 39.0328C67.6482 39.0456 67.6607 39.0774 67.6985 39.1284C67.7866 39.2495 68.0006 39.3706 68.3343 39.4917C68.4098 39.5172 68.4664 39.5618 68.5168 39.6255C68.6112 39.753 68.6616 39.9506 68.6553 40.2246C68.649 40.4541 68.6175 40.6771 68.5672 40.8874C68.542 40.9575 68.5105 41.0595 68.4727 41.1997C68.4539 41.2125 68.3594 41.2316 68.1895 41.2571C67.623 41.3399 67.239 41.2571 67.0439 41.0022C66.9746 40.9066 66.9306 40.7281 66.9306 40.4604C66.9243 40.1928 66.8928 40.0207 66.8299 39.9442C66.7543 39.8422 66.6473 39.8167 66.5025 39.8614C66.4711 39.8741 66.4207 39.8932 66.3578 39.9251L66.4585 39.2941Z" fill="#687FA4"></path><path d="M66.7795 38.3127C66.8173 38.2744 66.855 38.1979 66.8802 38.0768C66.8928 38.0386 66.8991 37.9812 66.9117 37.9048C66.9117 38.0195 66.9117 38.1151 66.8991 38.1852C66.8739 38.3955 66.8236 38.5548 66.7417 38.6568C66.7292 38.6759 66.7103 38.695 66.6851 38.7205C66.5781 38.8289 66.4333 38.9181 66.2445 39.0073C66.1626 39.0328 66.0745 39.0583 65.9864 39.0838C65.9864 39.0265 65.9864 38.9436 65.9864 38.8289C65.999 38.6504 66.0305 38.4465 66.0934 38.2298C66.1815 37.9175 66.3137 37.6753 66.49 37.4969C66.748 37.2356 67.132 37.0508 67.623 36.9424C67.6796 36.9297 67.7615 36.9169 67.8748 36.8978L67.837 37.5351C67.7615 37.5096 67.6985 37.4905 67.6419 37.4905C67.4719 37.4778 67.2831 37.5224 67.0754 37.6116C66.7669 37.7454 66.534 37.892 66.3829 38.045C66.2822 38.1469 66.1941 38.2617 66.1312 38.3764C66.1123 38.4146 66.0871 38.4656 66.0682 38.5166C66.15 38.523 66.2256 38.5357 66.3011 38.5421C66.5151 38.4975 66.6725 38.421 66.7795 38.3127Z" fill="#687FA4"></path><path d="M70.443 34.9476L72.3628 36.5154L72.2495 37.3503L70.3989 35.8399L69.3162 37.1974C69.3729 37.2547 69.4484 37.3184 69.5428 37.3949C69.6561 37.4587 69.8261 37.465 70.0653 37.4013C70.166 37.3631 70.2667 37.3184 70.3674 37.2738C70.3611 37.2611 70.3548 37.242 70.3422 37.2292C70.3171 37.1846 70.2856 37.1527 70.2604 37.1272C70.1912 37.0699 70.0904 37.0763 69.952 37.1464C69.9394 37.1527 69.9205 37.1655 69.8953 37.1782L69.8198 36.6365C69.8953 36.5919 69.952 36.56 69.9897 36.5473C70.1156 36.4963 70.2163 36.5027 70.2856 36.56C70.3234 36.5919 70.3548 36.6365 70.3737 36.6875C70.4304 36.8532 70.4555 37.0508 70.4492 37.2738C70.4304 37.6499 70.4555 37.8665 70.5248 37.9175C70.6884 38.0514 70.8647 38.0769 71.0598 37.994C71.1228 37.9685 71.2046 37.9112 71.3053 37.8347L71.4438 38.3764C71.3934 38.4146 71.3431 38.4465 71.2927 38.4847C71.0472 38.6058 70.8395 38.6377 70.6758 38.5867C70.6255 38.5676 70.5814 38.5485 70.55 38.523C70.4744 38.4592 70.4241 38.3637 70.3989 38.2362C70.3989 38.1215 70.3989 38.0004 70.3989 37.8857C70.0086 38.0641 69.7191 38.0769 69.5239 37.9175C69.2533 37.7008 69.14 37.3248 69.1714 36.8022C69.184 36.6365 69.1966 36.5345 69.2218 36.509L70.443 34.9476Z" fill="#687FA4"></path><path d="M73.7917 34.903C73.7665 34.9221 73.6973 34.954 73.5777 34.9922C73.1308 35.1515 72.7783 35.1643 72.5076 35.0304C72.1047 34.8329 71.8655 34.4632 71.7774 33.9215C71.7522 33.7622 71.7396 33.6729 71.7522 33.6538L71.3053 34.5716L71.0284 33.9534L72.1551 31.6271L74.3708 32.7233L74.4275 33.5965C74.3771 33.6092 74.2197 33.622 73.9428 33.6283L73.0678 33.6538C72.8412 33.6602 72.5768 33.7048 72.281 33.7877C72.1614 33.845 72.0355 33.896 71.9159 33.947C71.9474 33.998 71.9851 34.0426 72.0229 34.0872C72.1299 34.1828 72.2495 34.2657 72.3817 34.3294C72.5328 34.4059 72.6713 34.4377 72.8034 34.4377C73.0426 34.4314 73.2315 34.3867 73.3825 34.3103C73.4707 34.2657 73.5525 34.1892 73.6217 34.0745L73.7917 34.903ZM71.9222 33.2842L72.2306 33.2077C72.3691 33.1758 72.4698 33.1503 72.5202 33.1376C72.5517 33.1312 72.7216 33.0994 73.03 33.0484C73.093 33.0356 73.1874 33.0165 73.3007 32.9974L72.2999 32.5066L71.9222 33.2842Z" fill="#687FA4"></path><path d="M38.4349 15.0886C38.46 15.0504 38.523 15.0058 38.6237 14.9484C38.7244 14.891 38.7811 14.8655 38.7874 14.8783L38.8944 15.522C38.8755 15.522 38.844 15.5284 38.8062 15.5347C38.737 15.5475 38.6866 15.5666 38.6552 15.5921C38.63 15.6112 38.5733 15.6686 38.4915 15.7769C38.46 15.8215 38.4852 15.8725 38.5796 15.9299C38.6866 15.9936 38.8 16.0255 38.907 16.0191C39.0769 16.0063 39.2091 15.9936 39.2972 15.9809C39.6308 15.9235 39.9393 15.796 40.2162 15.6048C40.2729 15.5538 40.3233 15.5092 40.3799 15.4519L38.7433 14.4704L37.8117 16.0573L37.5914 15.42L38.6804 13.5654L40.6569 14.7508L40.5813 16.0191C40.5813 16.0318 40.575 16.0382 40.575 16.051C40.5436 16.1019 40.4303 16.1848 40.2414 16.2804C40.0022 16.4079 39.763 16.4907 39.5175 16.5481C39.2217 16.6118 38.9888 16.5927 38.8251 16.4907C38.6615 16.3887 38.523 16.2103 38.4097 15.9554C38.2775 15.6558 38.2649 15.4009 38.3908 15.1969C38.3971 15.1332 38.416 15.1013 38.4349 15.0886Z" fill="#687FA4"></path><path d="M40.317 12.2525C40.3862 12.2143 40.4428 12.1951 40.4869 12.1824C40.6191 12.1442 40.7261 12.1633 40.8079 12.227C40.9464 12.3417 40.9653 12.654 40.8646 13.1575C40.8331 13.3296 40.8457 13.4379 40.9149 13.4889C41.0471 13.5972 41.1856 13.6355 41.343 13.5972C41.4689 13.5271 41.6011 13.4507 41.7269 13.3806L41.8025 13.9924C41.8088 14.0243 41.7269 14.088 41.557 14.1708C41.3619 14.2664 41.1982 14.2919 41.0534 14.2537C41.0094 14.2409 40.9653 14.2218 40.9275 14.1836C40.8331 14.1007 40.7765 13.9669 40.7576 13.763C40.7576 13.6674 40.7576 13.5781 40.7576 13.4825C40.361 13.6674 40.0715 13.6865 39.8763 13.5271C39.5805 13.2786 39.5112 12.8388 39.6623 12.2015C39.719 11.9848 39.763 11.8637 39.8134 11.8446C39.8952 11.8319 39.9707 11.8255 40.04 11.8127C40.2099 11.7809 40.3295 11.7235 40.3988 11.6407C40.4743 11.5514 40.5121 11.4176 40.5121 11.2455C40.5121 11.2009 40.5058 11.1244 40.4932 11.0097C40.5939 10.946 40.6569 10.9014 40.6946 10.8823C40.8457 10.793 40.9653 10.7484 41.0534 10.7484C41.1604 10.7612 41.2674 10.8121 41.3682 10.895L42.7907 12.0804L42.6585 12.9217L40.9086 11.4622C40.8457 11.4049 40.7198 11.4495 40.5373 11.5897C40.5184 11.6662 40.5058 11.749 40.4869 11.8255C40.4303 12.0167 40.3547 12.1505 40.2729 12.2334C40.2036 12.3035 40.0841 12.3672 39.9141 12.4309C39.8574 12.4564 39.7819 12.4756 39.6875 12.5011C39.7001 12.5712 39.7127 12.6285 39.7253 12.6731C39.763 12.8006 39.8134 12.8898 39.8763 12.9408C39.8889 12.9536 39.9015 12.9663 39.9141 12.9663C40.0148 13.0173 40.1911 13.0109 40.4554 12.9408C40.4806 12.9344 40.6065 12.8962 40.8268 12.8197C40.8205 12.8133 40.8205 12.8006 40.8205 12.7942C40.8016 12.7751 40.7828 12.7496 40.7639 12.7369C40.6632 12.654 40.5561 12.654 40.424 12.7369C40.4051 12.7496 40.3799 12.7687 40.3484 12.7878L40.317 12.2525Z" fill="#687FA4"></path><path d="M42.9292 13.3615C42.797 13.2276 42.8222 13.0747 42.9985 12.8835C43.181 12.6923 43.3447 12.6668 43.4768 12.8006C43.609 12.9345 43.5839 13.0874 43.4076 13.2786C43.2251 13.4698 43.0614 13.4953 42.9292 13.3615Z" fill="#687FA4"></path><path d="M42.8096 9.74782C42.8852 9.72233 42.9418 9.70958 42.9859 9.70321C43.1181 9.69046 43.2251 9.7287 43.288 9.80518C43.4013 9.93902 43.3698 10.2513 43.181 10.7293C43.1181 10.8886 43.1181 11.0033 43.1684 11.0671C43.2817 11.1945 43.4139 11.2583 43.5713 11.2455C43.7098 11.1945 43.8482 11.1499 43.9867 11.0989L43.9552 11.7171C43.9615 11.749 43.8671 11.7936 43.6846 11.851C43.4769 11.9083 43.3069 11.9083 43.1747 11.8446C43.1306 11.8255 43.0929 11.7936 43.0614 11.7554C42.9796 11.6598 42.9481 11.5132 42.967 11.3156C42.9859 11.2264 42.9985 11.1308 43.0173 11.0416C42.5956 11.1563 42.3061 11.1181 42.1424 10.9269C41.8906 10.6337 41.8969 10.1876 42.1613 9.58849C42.2494 9.38454 42.3186 9.2762 42.369 9.26345C42.4508 9.26983 42.5264 9.26983 42.5956 9.26983C42.7656 9.26983 42.8914 9.23796 42.9733 9.16148C43.0614 9.085 43.1181 8.96391 43.1495 8.79183C43.1558 8.74722 43.1684 8.67074 43.1684 8.55602C43.2754 8.51141 43.351 8.47955 43.3887 8.4668C43.5524 8.40944 43.6783 8.38395 43.7601 8.40307C43.8671 8.43493 43.9615 8.50504 44.0434 8.60064L45.2456 10.0219L44.975 10.8313L43.502 9.09138C43.4454 9.02764 43.3195 9.04676 43.1118 9.14873C43.0803 9.22521 43.0488 9.30169 43.0173 9.3718C42.9292 9.55025 42.8348 9.67134 42.7404 9.73507C42.6648 9.79243 42.5327 9.83704 42.3564 9.86891C42.2935 9.88166 42.2179 9.88803 42.1235 9.8944C42.1235 9.96451 42.1235 10.0219 42.1298 10.0729C42.1424 10.2003 42.1802 10.3023 42.2305 10.3596C42.2431 10.3788 42.2557 10.3851 42.262 10.3915C42.3501 10.4616 42.5264 10.4807 42.797 10.4616C42.8222 10.4616 42.9544 10.4425 43.181 10.4106C43.1747 10.4043 43.1747 10.3915 43.1747 10.3851C43.1621 10.3596 43.1495 10.3405 43.1306 10.315C43.0488 10.2194 42.9355 10.2003 42.797 10.2513C42.7719 10.2641 42.7467 10.2768 42.7152 10.2895L42.8096 9.74782Z" fill="#687FA4"></path><path d="M45.5667 7.56182L44.4588 8.25013L44.6539 7.52358L45.9317 6.72693L47.2095 8.8301L46.8067 9.58851L45.5667 7.56182Z" fill="#687FA4"></path><path d="M46.9326 6.79065L47.2096 6.21069C47.2977 6.21706 47.3795 6.22343 47.4676 6.22981C47.6502 6.26805 47.7635 6.33178 47.8075 6.42738L47.8201 6.45287C47.8516 6.56759 47.8264 6.81614 47.7383 7.20491C47.7005 7.37699 47.7068 7.51083 47.7509 7.6128C47.7635 7.63829 47.7698 7.66378 47.7824 7.67653C47.8894 7.84223 48.053 7.95058 48.2733 8.00794C48.5692 8.09079 48.7895 8.09716 48.9343 8.03343C48.972 8.02069 49.035 7.95695 49.1105 7.84223C49.1924 7.72752 49.2238 7.65741 49.2175 7.63829L48.5314 6.08322L49.0287 5.37579L49.8344 7.17942L49.4378 7.48533C49.4756 7.47896 49.5323 7.46621 49.5952 7.45347C49.7589 7.42797 49.9036 7.45347 50.0484 7.5172C50.124 7.55544 50.1554 7.57456 50.1554 7.58731L49.8785 8.17364C49.6204 7.95695 49.3875 7.89322 49.1735 7.99519C49.0539 8.05255 48.9595 8.18002 48.9028 8.38396C48.8524 8.55604 48.8273 8.64526 48.8273 8.65801C48.8084 8.66438 48.7077 8.67075 48.5377 8.66438C47.9586 8.65164 47.6124 8.50505 47.4802 8.21826C47.4299 8.09716 47.4236 7.94421 47.4676 7.75938C47.5683 7.36424 47.5998 7.12206 47.5683 7.03921C47.562 7.02646 47.5558 7.01371 47.5558 6.99459C47.5432 6.98185 47.5432 6.97547 47.5432 6.9691C47.4865 6.84801 47.3732 6.7779 47.1844 6.77153C47.134 6.76516 47.0459 6.7779 46.9326 6.79065Z" fill="#687FA4"></path><path d="M47.8831 5.42039C47.8138 5.3949 47.7761 5.35666 47.7635 5.32479C47.7572 5.31204 47.7635 5.29292 47.7698 5.27381L48.1852 4.6556C48.2419 4.57275 48.3741 4.49627 48.5818 4.42617C48.607 4.41342 48.6447 4.40705 48.6825 4.3943C48.7517 4.36881 48.8462 4.35606 48.9595 4.36243C49.0853 4.36881 49.1609 4.40067 49.1735 4.44529C49.1798 4.47078 49.1798 4.4899 49.1609 4.51539L48.7643 5.21007C48.7203 5.28655 48.6007 5.35666 48.4118 5.42676C48.3426 5.45226 48.2859 5.465 48.2419 5.47775C48.1412 5.49687 48.0216 5.47775 47.8831 5.42039ZM48.0656 4.98701C48.0845 5.04437 48.116 5.08261 48.16 5.09535C48.2356 5.12085 48.3489 5.12085 48.4999 5.09535C48.544 5.08898 48.5818 5.07624 48.6133 5.06349C48.714 5.02525 48.7895 4.97426 48.8273 4.89778C48.8399 4.87866 48.8524 4.84043 48.8587 4.80219C48.8587 4.78944 48.8587 4.77669 48.8587 4.76395C48.8336 4.68109 48.7329 4.66198 48.5692 4.70659C48.4811 4.73208 48.4307 4.74483 48.3992 4.75757C48.2607 4.80856 48.16 4.86592 48.0908 4.93602C48.0908 4.95514 48.0782 4.97426 48.0656 4.98701Z" fill="#687FA4"></path><path d="M56.5067 4.34332C56.5507 4.34969 56.62 4.38156 56.7144 4.44529C56.8151 4.50902 56.8592 4.54726 56.8529 4.56001L56.343 4.96152C56.3304 4.9424 56.3116 4.91691 56.2927 4.88504C56.2486 4.82768 56.2108 4.78944 56.1731 4.7767C56.1479 4.76395 56.0661 4.74483 55.9339 4.71934C55.8772 4.71296 55.852 4.75758 55.8458 4.86592C55.8395 4.99339 55.8646 5.10173 55.9213 5.19733C56.0157 5.34391 56.0849 5.45863 56.1416 5.52874C56.3493 5.79641 56.6074 6.0131 56.9032 6.17243C56.9725 6.19793 57.0417 6.22342 57.111 6.24891L57.1991 4.3242L55.3737 4.24134L55.8269 3.74423L57.9544 3.8462L57.8474 6.17243L56.7144 6.68867C56.7018 6.69504 56.6955 6.69504 56.6829 6.69504C56.62 6.69504 56.5004 6.63131 56.3241 6.50384C56.1038 6.35088 55.915 6.17881 55.7513 5.98124C55.5562 5.74543 55.4618 5.52874 55.4744 5.33754C55.4807 5.14634 55.5751 4.93603 55.745 4.71296C55.9465 4.45166 56.1605 4.3242 56.3997 4.33694C56.45 4.33057 56.4815 4.33694 56.5067 4.34332Z" fill="#687FA4"></path><path d="M57.2054 6.79065C57.2243 6.79702 57.2558 6.8034 57.2872 6.81614C57.4761 6.8735 57.5957 6.95635 57.6586 7.05833C57.6901 7.10294 57.7027 7.14118 57.6964 7.1603L57.6397 7.60005L56.9347 7.88047L57.004 7.31963C57.0103 7.27502 56.9977 7.2304 56.9725 7.18579C56.9473 7.15392 56.8844 7.12843 56.79 7.11568C56.7522 7.10294 56.7207 7.10294 56.683 7.10294L57.2054 6.79065Z" fill="#687FA4"></path><path d="M59.7169 4.19674C59.7988 4.26685 59.8554 4.32421 59.8869 4.36882C59.9939 4.50903 60.0317 4.64287 60.0002 4.77671L59.9876 4.81495C59.975 4.83407 59.9687 4.84681 59.9687 4.85956C59.931 4.94241 59.8051 5.05076 59.6099 5.19097C59.4211 5.3248 59.3204 5.43315 59.2952 5.52237C59.2826 5.58611 59.2826 5.64984 59.3015 5.71357C59.3896 6.07685 59.5533 6.36364 59.7925 6.58033C59.9435 6.72054 60.1072 6.80977 60.2646 6.84801C60.3086 6.86075 60.3275 6.86075 60.3338 6.85438L60.9822 4.19037L61.8005 3.95456L61.0766 6.92449L59.7988 7.19853C59.7484 7.21128 59.6225 7.15392 59.4274 7.02646C58.842 6.65044 58.6028 6.24255 58.7161 5.79642C58.7476 5.67533 58.8294 5.56699 58.9616 5.46501C59.2574 5.23558 59.4211 5.07625 59.44 4.9934C59.4463 4.97428 59.4463 4.95516 59.4463 4.93604C59.4589 4.84044 59.4085 4.75121 59.3078 4.65561C59.2763 4.62375 59.2197 4.58551 59.1441 4.5409L59.7169 4.19674Z" fill="#687FA4"></path><path d="M62.5243 5.61159C62.4677 5.57972 62.4236 5.55423 62.3921 5.54148L62.8957 5.31842C62.9964 5.38853 63.0657 5.43314 63.1034 5.465C63.3741 5.67532 63.4496 5.91113 63.3426 6.17243L62.9901 7.02007C63.009 7.04557 63.0908 7.12204 63.223 7.24951C63.3615 7.37697 63.5 7.54268 63.6448 7.74662C63.6825 7.80398 63.7203 7.85497 63.7581 7.90595L64.3749 6.43374L65.2121 6.31902L64.2616 8.58789L63.4245 8.69623C63.4119 8.54328 63.3678 8.32021 63.2986 8.03342C63.2545 7.92507 63.1664 7.79123 63.0279 7.62553C62.9838 7.57454 62.9209 7.50444 62.8265 7.40884L62.625 7.89321L61.7753 7.99518C61.7816 7.95694 61.7879 7.91233 61.7879 7.84859C61.8067 7.6319 61.8004 7.45345 61.769 7.31324C61.7564 7.23676 61.7123 7.13479 61.6494 6.99458C61.6242 6.93085 61.5927 6.87349 61.555 6.80976C61.6053 6.79064 61.6494 6.77152 61.6871 6.75877C61.7816 6.73328 61.8697 6.71416 61.9389 6.70141C62.0585 6.68867 62.1655 6.68867 62.2537 6.69504C62.26 6.69504 62.2851 6.70141 62.3166 6.70141L62.6628 5.87926C62.7132 5.77729 62.6628 5.68807 62.5243 5.61159ZM62.2411 6.90535C62.2348 6.89261 62.2096 6.87986 62.1655 6.85437C62.0774 6.81613 62.0082 6.79064 61.9578 6.78426C61.9515 6.79064 61.9515 6.80338 61.9515 6.80976C61.9893 6.84162 62.0334 6.90536 62.0774 7.00733C62.09 7.03919 62.1089 7.08381 62.1341 7.15391L62.2411 6.90535Z" fill="#687FA4"></path><path d="M64.3876 5.4459C64.3624 5.3758 64.3561 5.32481 64.375 5.28657C64.3813 5.27383 64.3938 5.26108 64.419 5.25471L65.1492 5.15274C65.2436 5.13999 65.3884 5.19098 65.5835 5.29932C65.6087 5.31207 65.6402 5.33119 65.6716 5.35031C65.7409 5.38855 65.8038 5.4459 65.8794 5.53513C65.9612 5.6371 65.9864 5.70721 65.9612 5.75182C65.9486 5.77094 65.9297 5.78369 65.8983 5.79006L65.124 5.95576C65.0422 5.97488 64.91 5.93027 64.7275 5.83467C64.6645 5.80281 64.6142 5.77094 64.5764 5.73907C64.5009 5.68809 64.4316 5.58612 64.3876 5.4459ZM64.8219 5.29932C64.7904 5.35031 64.7841 5.40129 64.803 5.4459C64.8408 5.52238 64.91 5.60524 65.0296 5.70083C65.0611 5.72633 65.0988 5.75182 65.1303 5.76457C65.2247 5.81555 65.3129 5.83467 65.3947 5.81555C65.4199 5.80918 65.4513 5.79643 65.4891 5.77731C65.5017 5.77094 65.508 5.75819 65.5143 5.75182C65.5521 5.67534 65.5017 5.59249 65.3632 5.49689C65.2877 5.4459 65.2373 5.41404 65.2121 5.40129C65.08 5.33119 64.9729 5.29295 64.8785 5.29295C64.8596 5.28657 64.8408 5.29295 64.8219 5.29932Z" fill="#687FA4"></path><path d="M67.7111 11.7427L69.2281 10.3278C69.3036 10.2577 69.3351 10.1812 69.3225 10.1047C69.3099 10.0474 69.2785 9.9709 69.2281 9.8753C69.2155 9.84981 69.1903 9.80519 69.1526 9.74783L69.8072 9.7797L71.3053 11.424L69.5176 13.1002L68.7056 12.8452L70.4304 11.2328L69.782 10.519L69.8009 10.8185L68.5231 12.0167L67.7111 11.7427Z" fill="#687FA4"></path><path d="M70.2982 14.2473C70.3108 14.2919 70.3297 14.3365 70.3611 14.4003C70.3674 14.4194 70.3863 14.4513 70.4115 14.4959L69.8135 14.2983C69.7443 14.2792 69.6939 14.1454 69.675 13.9032C69.6561 13.712 69.6813 13.5909 69.7505 13.5399L71.4186 12.329L72.1929 12.6859L70.3611 14.0115C70.2919 14.0561 70.273 14.1326 70.2982 14.2473Z" fill="#687FA4"></path><path d="M70.7073 14.942L71.3431 15.1778C71.1102 15.3818 71.0724 15.6176 71.2235 15.898C71.3116 16.0573 71.4123 16.1465 71.5193 16.1657C71.6012 16.1784 71.683 16.1593 71.7711 16.1083C71.9914 15.9872 72.1677 15.7578 72.2936 15.4391C72.5013 14.9038 72.5202 14.4003 72.3628 13.9223C72.3439 13.8777 72.3188 13.8076 72.2873 13.712L72.9671 13.8841L74.0246 15.8151L73.3259 15.6112L73.0112 15.0376C73.0112 15.0695 72.9923 15.1396 72.9545 15.2607C72.8223 15.7068 72.6146 16.0127 72.3376 16.1657C72.2369 16.223 72.1425 16.2613 72.0607 16.2804C71.683 16.3569 71.255 16.2167 70.7829 15.8598C70.7577 15.8343 70.7388 15.8088 70.7199 15.7833C70.6507 15.6558 70.6255 15.4774 70.6381 15.2479C70.657 15.0376 70.6759 14.9356 70.7073 14.942Z" fill="#687FA4"></path><path d="M56.0157 47.8088C43.3698 47.8088 33.0844 37.3949 33.0844 24.5911C33.0782 11.7809 43.3698 1.36703 56.0157 1.36703C68.6616 1.36703 78.947 11.7809 78.947 24.5847C78.947 37.3885 68.6553 47.8088 56.0157 47.8088ZM56.0157 2.24017C43.8482 2.24017 33.9468 12.2653 33.9468 24.5847C33.9468 36.9042 43.8482 46.9293 56.0157 46.9293C68.1832 46.9293 78.0846 36.9042 78.0846 24.5847C78.0846 12.2653 68.1832 2.24017 56.0157 2.24017Z" fill="#687FA4"></path><path d="M36.8675 24.9862C36.5842 24.9862 36.3513 24.7504 36.3513 24.4636C36.3513 24.1768 36.5842 23.941 36.8675 23.941C37.1508 23.941 37.3837 24.1768 37.3837 24.4636C37.3837 24.7504 37.1508 24.9862 36.8675 24.9862ZM36.8675 24.0111C36.622 24.0111 36.4206 24.2151 36.4206 24.4636C36.4206 24.7122 36.622 24.9161 36.8675 24.9161C37.113 24.9161 37.3144 24.7122 37.3144 24.4636C37.3081 24.2151 37.113 24.0111 36.8675 24.0111Z" fill="#687FA4"></path><path d="M37.8746 23.8518C37.6417 23.6861 37.3459 23.9155 37.3459 23.9155H37.3396C37.3333 23.9092 37.3333 23.9092 37.327 23.9028C37.5725 23.6351 37.2955 23.0998 37.2955 23.0998C37.1319 22.8512 36.9179 22.2585 36.9179 22.2585C36.8801 22.4879 36.4458 23.1189 36.4458 23.1189C36.1436 23.6351 36.4143 23.8964 36.4143 23.8964C36.4206 23.8964 36.4269 23.8964 36.4269 23.89C36.4143 23.8964 36.408 23.9092 36.3954 23.9155C36.3199 23.8709 36.0492 23.718 35.8478 23.8582C35.8478 23.8582 35.319 24.4063 35.105 24.4764C35.105 24.4764 35.3253 24.5911 35.6338 24.8524C35.6338 24.8524 36.0177 25.2985 36.3576 24.999C36.3639 25.0053 36.3639 25.0053 36.3702 25.0117C36.3388 25.0563 36.1562 25.324 36.4332 25.7956C36.4332 25.7956 36.8675 26.4266 36.9053 26.656C36.9053 26.656 37.1193 26.0633 37.2829 25.8084C37.2829 25.8084 37.604 25.2603 37.3585 24.9926C37.6984 25.2921 38.0824 24.846 38.0824 24.846C38.3971 24.5911 38.6111 24.47 38.6111 24.47C38.4097 24.3935 37.8746 23.8518 37.8746 23.8518ZM36.8675 25.1201C36.5087 25.1201 36.2192 24.8269 36.2192 24.4636C36.2192 24.1003 36.5087 23.8072 36.8675 23.8072C37.2263 23.8072 37.5158 24.1003 37.5158 24.4636C37.5158 24.8269 37.2263 25.1201 36.8675 25.1201Z" fill="#687FA4"></path><path d="M74.9562 24.9862C74.6729 24.9862 74.44 24.7504 74.44 24.4636C74.44 24.1768 74.6729 23.941 74.9562 23.941C75.2394 23.941 75.4723 24.1768 75.4723 24.4636C75.4723 24.7504 75.2394 24.9862 74.9562 24.9862ZM74.9562 24.0111C74.7107 24.0111 74.5093 24.2151 74.5093 24.4636C74.5093 24.7122 74.7107 24.9161 74.9562 24.9161C75.2017 24.9161 75.4031 24.7122 75.4031 24.4636C75.3968 24.2151 75.2017 24.0111 74.9562 24.0111Z" fill="#687FA4"></path><path d="M75.9696 23.8518C75.7367 23.6861 75.4409 23.9155 75.4409 23.9155H75.4346C75.4283 23.9092 75.422 23.9092 75.422 23.9028C75.6675 23.6351 75.3905 23.0998 75.3905 23.0998C75.2269 22.8512 75.0128 22.2585 75.0128 22.2585C74.9751 22.4879 74.5408 23.1189 74.5408 23.1189C74.2386 23.6351 74.5156 23.8964 74.5156 23.8964C74.5219 23.8964 74.5282 23.8964 74.5282 23.89C74.5156 23.8964 74.5093 23.9092 74.4967 23.9155C74.4212 23.8709 74.1505 23.718 73.9491 23.8582C73.9491 23.8582 73.4203 24.4063 73.2063 24.4764C73.2063 24.4764 73.4266 24.5911 73.735 24.8524C73.735 24.8524 74.119 25.2985 74.4589 24.999C74.4652 25.0053 74.4652 25.0053 74.4715 25.0117C74.44 25.0563 74.2575 25.324 74.5345 25.7956C74.5345 25.7956 74.9688 26.4266 75.0066 26.656C75.0066 26.656 75.2206 26.0633 75.3842 25.8084C75.3842 25.8084 75.7053 25.2603 75.4598 24.9926C75.7997 25.2921 76.1836 24.846 76.1836 24.846C76.4984 24.5911 76.7124 24.47 76.7124 24.47C76.4984 24.3935 75.9696 23.8518 75.9696 23.8518ZM74.9562 25.1201C74.5974 25.1201 74.3079 24.8269 74.3079 24.4636C74.3079 24.1003 74.5974 23.8072 74.9562 23.8072C75.315 23.8072 75.6045 24.1003 75.6045 24.4636C75.6045 24.8269 75.315 25.1201 74.9562 25.1201Z" fill="#687FA4"></path><path d="M55.7954 40.4859C47.0711 40.4859 39.9771 33.3033 39.9771 24.47C39.9771 15.6367 47.0711 8.45407 55.7954 8.45407C64.5197 8.45407 71.6138 15.6367 71.6138 24.47C71.6138 33.3033 64.5197 40.4859 55.7954 40.4859ZM55.7954 9.19337C47.4739 9.19337 40.7009 16.051 40.7009 24.4764C40.7009 32.9018 47.4739 39.7594 55.7954 39.7594C64.1169 39.7594 70.8899 32.9018 70.8899 24.4764C70.8899 16.0446 64.1169 9.19337 55.7954 9.19337Z" fill="#687FA4"></path><path d="M52.2452 33.4499C52.2452 33.4499 51.4521 33.673 51.3577 34.8456C51.3577 34.8456 51.3388 36.0247 52.3019 36.713C52.3019 36.713 52.9691 37.2101 53.4916 37.1527C53.4916 37.1527 54.0518 37.2675 54.5428 36.0502C54.5428 36.0502 54.8197 35.1707 54.8071 34.425L54.9708 34.6162C54.9708 34.6162 54.9267 36.2987 54.1966 37.0189C54.1966 37.0189 53.8063 37.7455 52.6733 37.1527C52.6733 37.1527 51.2948 36.6046 51.2444 34.8839C51.2444 34.8839 51.257 33.6029 52.2767 33.2969C52.2704 33.2969 52.2893 33.3925 52.2452 33.4499Z" fill="#687FA4"></path><path d="M59.5092 29.8044C59.5092 29.8044 58.1181 29.8809 57.7719 31.2766C57.7719 31.2766 57.5894 31.8693 57.8852 32.6915C57.8852 32.6915 58.1496 33.5391 57.9041 34.0553C57.9041 34.0553 58.7035 33.8386 58.8042 32.9209C58.8042 32.9209 58.9112 32.5576 58.7665 31.455C58.7665 31.455 58.7476 30.5309 59.5785 30.2186L59.5092 29.8044Z" fill="#687FA4"></path><path d="M61.9075 30.7986L61.6305 30.3844C61.6305 30.3844 62.0648 29.9829 61.9704 29.3583C61.9704 29.3583 61.9075 28.8994 61.5298 28.9122C61.5298 28.9122 60.9822 28.9568 61.2088 29.6451C61.2088 29.6451 60.4094 29.5304 60.359 28.67C60.359 28.67 60.3779 28.1665 60.6863 27.9944C60.6863 27.9944 61.0325 27.7267 61.3032 27.9052C61.3032 27.9052 61.1458 27.2933 61.9138 26.5349C61.9138 26.5349 62.4047 25.9231 62.9209 25.8148C62.9209 25.8148 62.6439 25.9741 62.5055 26.3947C62.5055 26.3947 62.3984 26.6497 62.4803 27.2933C62.4803 27.2933 62.5558 27.9243 62.1907 28.2238C62.1907 28.2238 62.2411 28.3194 62.4551 28.0326C62.4551 28.0326 62.5936 27.8032 62.7824 27.8606C62.7824 27.8606 62.5432 27.8924 62.6251 28.466C62.6251 28.466 62.8328 29.1288 62.6062 29.7789C62.5936 29.7725 62.3355 30.3652 61.9075 30.7986Z" fill="#687FA4"></path><path d="M61.2277 25.6936C61.2277 25.6936 61.6935 24.2788 61.0011 22.8129C61.0011 22.8129 61.0703 23.3993 60.7807 23.8263C60.7807 23.8263 60.3842 24.3808 60.3779 24.6421C60.3779 24.6421 60.3779 24.3808 60.0757 24.2023C60.0757 24.2023 60.189 24.47 59.9813 24.6038C59.9813 24.6038 59.6855 25.0181 59.6981 25.2858C59.6981 25.2858 59.6855 25.6618 59.868 25.8339C59.868 25.8339 59.8869 25.4323 60.1702 25.4387C60.1702 25.4387 60.4912 25.4706 60.4723 25.9741C60.4723 25.9741 60.3653 26.5859 60.0757 27.0384C60.0757 27.0384 60.0254 26.6241 59.7169 26.2991C59.7169 26.2991 59.3204 26.0123 58.9805 26.1844C58.9805 26.1844 58.9742 25.2794 59.1882 24.5975C59.1882 24.5975 59.4211 23.8582 59.9939 23.8199C59.9939 23.8199 60.2772 23.8709 60.3653 24.145C60.3653 24.145 60.3716 23.9792 60.5541 23.6415C60.5541 23.6415 61.0577 22.8321 60.3023 20.9073C60.3023 20.9073 60.3653 21.5702 60.1387 22.0099C60.1387 22.0099 59.8743 22.5389 60.0065 22.7875C60.0065 22.7875 60.1009 23.0488 59.868 23.189C59.868 23.189 59.9121 22.9595 59.7169 22.6919C59.7169 22.6919 59.7736 22.9404 59.6792 23.0105C59.6792 23.0105 59.2826 23.4311 59.2071 23.6861C59.2071 23.6861 58.6406 22.9532 56.9662 22.7492L57.0543 23.0169C57.0543 23.0169 57.7341 23.0742 58.2062 23.4503C58.2062 23.4503 58.3762 23.7371 58.2818 24.0175C58.2818 24.0175 58.6909 24.2023 58.7476 24.6803C58.7476 24.6803 58.7728 25.3622 58.7728 25.9167C58.7728 25.9167 58.8294 26.9683 58.4328 27.4017C58.4328 27.4017 58.351 27.4973 58.2251 27.5355C58.2251 27.5355 58.0552 27.5929 58.1118 27.7267C58.1118 27.7267 58.1559 27.9243 58.3573 27.8478C58.3573 27.8478 58.6846 27.6948 58.8986 27.083C58.8986 27.083 59.0245 26.7006 59.0057 26.4138C59.0057 26.4138 59.3582 26.1908 59.6288 26.5923C59.6288 26.5923 59.8554 27.0065 59.7799 27.4845C59.7799 27.4845 59.6729 28.2111 59.5911 28.6445C59.5911 28.6445 59.377 29.5048 59.5911 30.327C59.5911 30.327 59.7484 31.0918 60.4849 31.2575C60.4849 31.2575 60.7807 31.3594 61.0451 31.2192C61.0451 31.2192 61.0388 31.0344 60.8689 30.8878C60.8689 30.8878 60.0065 31.0663 59.8617 30.123C59.8617 30.123 59.5722 28.995 60.252 27.7395C60.2331 27.7203 60.9822 26.5349 61.2277 25.6936ZM58.8798 24.2788C58.8798 24.2788 58.7728 23.9856 58.5399 23.8199C58.5399 23.8199 58.565 23.6032 58.4958 23.4694C58.4958 23.4694 58.842 23.6287 59.0434 23.9028C59.0434 23.9028 58.8798 24.1513 58.8798 24.2788Z" fill="#687FA4"></path><path d="M49.5637 30.7413L49.9099 30.3334C49.9099 30.3334 49.4945 29.9765 49.5889 29.3519C49.5889 29.3519 49.6519 28.893 50.0295 28.9058C50.0295 28.9058 50.5772 28.9504 50.3506 29.6387C50.3506 29.6387 51.15 29.524 51.2003 28.6636C51.2003 28.6636 51.1814 28.1601 50.873 27.988C50.873 27.988 50.5268 27.7204 50.2561 27.8988C50.2561 27.8988 50.4135 27.287 49.6456 26.5286C49.6456 26.5286 49.1546 25.9167 48.6384 25.8084C48.6384 25.8084 48.9154 25.9677 49.0539 26.3883C49.0539 26.3883 49.1609 26.6433 49.0853 27.287C49.0853 27.287 49.0098 27.9179 49.3749 28.2175C49.3749 28.2175 49.3245 28.3131 49.1105 28.0263C49.1105 28.0263 48.972 27.7968 48.7832 27.8542C48.7832 27.8542 49.0224 27.8861 48.9406 28.4596C48.9406 28.4596 48.7328 29.1225 48.9595 29.7725C48.972 29.7725 49.142 30.3143 49.5637 30.7413Z" fill="#687FA4"></path><path d="M51.3262 27.7204C52.006 28.9759 51.7165 30.1039 51.7165 30.1039C51.578 31.0536 50.7345 30.8942 50.7345 30.8942C50.5646 31.0408 50.5331 31.2065 50.5331 31.2065C50.7975 31.3531 51.0933 31.2448 51.0933 31.2448C51.8298 31.079 51.9872 30.3143 51.9872 30.3143C52.2075 29.4921 51.9872 28.6317 51.9872 28.6317C51.899 28.1983 51.7983 27.4718 51.7983 27.4718C51.7228 26.9938 51.9494 26.5795 51.9494 26.5795C52.2263 26.178 52.5726 26.4011 52.5726 26.4011C52.5537 26.6879 52.6796 27.0703 52.6796 27.0703C52.8873 27.6821 53.2209 27.8351 53.2209 27.8351C53.4223 27.9116 53.4664 27.714 53.4664 27.714C53.523 27.5801 53.3531 27.5228 53.3531 27.5228C53.2272 27.4845 53.1454 27.3889 53.1454 27.3889C52.7488 26.9556 52.8055 25.904 52.8055 25.904C52.8055 25.3495 52.8369 24.6676 52.8369 24.6676C52.8936 24.1896 53.3027 24.0048 53.3027 24.0048C53.2083 23.7307 53.3783 23.4375 53.3783 23.4375C53.8504 23.0615 54.5742 23.0042 54.5742 23.0042L54.6624 22.7365C52.988 22.9404 52.3774 23.6734 52.3774 23.6734C52.3019 23.4121 51.9053 22.9978 51.9053 22.9978C51.8109 22.9341 51.8676 22.6791 51.8676 22.6791C51.6724 22.9468 51.7165 23.1762 51.7165 23.1762C51.4773 23.036 51.5717 22.7747 51.5717 22.7747C51.7039 22.5262 51.4395 21.9972 51.4395 21.9972C51.2129 21.5574 51.2759 20.8946 51.2759 20.8946C50.5205 22.8193 51.0178 23.6287 51.0178 23.6287C51.2003 23.9665 51.2066 24.1322 51.2066 24.1322C51.2947 23.8518 51.578 23.8072 51.578 23.8072C52.1445 23.8454 52.3837 24.5847 52.3837 24.5847C52.5977 25.2667 52.5914 26.1717 52.5914 26.1717C52.2515 25.9996 51.855 26.2864 51.855 26.2864C51.5402 26.6114 51.4962 27.0257 51.4962 27.0257C51.2066 26.5732 51.0996 25.9613 51.0996 25.9613C51.0807 25.4515 51.4018 25.426 51.4018 25.426C51.685 25.4196 51.7039 25.8211 51.7039 25.8211C51.8801 25.6491 51.8739 25.273 51.8739 25.273C51.8801 25.0054 51.5906 24.5911 51.5906 24.5911C51.3829 24.4573 51.4962 24.1896 51.4962 24.1896C51.194 24.3744 51.194 24.6293 51.194 24.6293C51.1814 24.368 50.7912 23.8136 50.7912 23.8136C50.5079 23.3802 50.5709 22.8002 50.5709 22.8002C49.8785 24.2661 50.3443 25.6809 50.3443 25.6809C50.5835 26.5349 51.3262 27.7204 51.3262 27.7204ZM52.5222 23.9028C52.7236 23.6287 53.0698 23.4694 53.0698 23.4694C53.0006 23.6032 53.0258 23.8199 53.0258 23.8199C52.7929 23.9856 52.6859 24.2788 52.6859 24.2788C52.6796 24.1513 52.5222 23.9028 52.5222 23.9028Z" fill="#687FA4"></path><path d="M56.0787 10.0856C56.0787 10.2322 55.9591 10.3533 55.8143 10.3533C55.6695 10.3533 55.5499 10.2322 55.5499 10.0856C55.5499 9.93902 55.6695 9.81793 55.8143 9.81793C55.9591 9.81793 56.0787 9.93902 56.0787 10.0856Z" fill="#687FA4"></path><path d="M55.8143 10.468C55.8143 10.468 56.129 12.125 56.2108 12.6986C56.2108 12.6986 55.9339 12.9472 55.8017 13.1001C55.8017 13.1001 55.5373 12.807 55.3611 12.7305C55.3611 12.7241 55.5121 11.8765 55.8143 10.468Z" fill="#687FA4"></path><path d="M51.4521 34.3039C51.4521 34.3039 52.2641 34.3167 52.5663 33.4563C52.5663 33.4563 52.6984 33.0165 52.3774 32.615C52.3774 32.615 52.0501 32.2772 51.6221 32.3983C51.6221 32.3983 51.9116 31.9012 52.4152 32.0032C52.4152 32.0032 53.0132 32.1051 53.1957 32.8763C53.1957 32.8763 53.3279 33.673 52.9062 34.1318C52.9062 34.1318 52.3334 34.9731 51.3451 34.8265L51.4521 34.3039Z" fill="#687FA4"></path><path d="M59.6414 30.4991C59.6414 30.4991 59.1441 30.7221 59.1378 31.5188C59.1378 31.5188 59.1819 31.9777 59.2197 32.3154C59.2197 32.3154 59.3141 33.042 59.0245 33.5009C59.0245 33.5009 58.7476 33.9661 58.2125 34.2529C58.2125 34.2529 57.6901 34.5078 57.3816 34.5779C57.3816 34.5779 57.4949 34.3166 57.5705 34.0808C57.5705 34.0808 57.7467 33.6219 57.5516 32.9209C57.5516 32.9209 57.4761 32.6405 57.4005 32.2772C57.4005 32.2772 57.155 31.4678 57.6082 30.6648C57.6082 30.6648 58.137 29.5877 59.4777 29.524V29.6769C59.4777 29.6769 58.5335 29.6769 57.8223 30.5883C57.8223 30.5883 57.4446 31.2001 57.5012 31.8629C57.5012 31.8629 57.6019 32.4493 57.6838 32.8444C57.6838 32.8444 57.923 33.9087 57.6145 34.3294C57.6145 34.3294 58.2755 34.2274 58.8231 33.5136C58.8231 33.5136 59.163 33.0484 59.0812 32.3728C59.0812 32.3728 58.9742 31.7673 58.9931 31.3849C58.9931 31.3849 59.0875 30.6074 59.6162 30.3652L59.6414 30.4991Z" fill="#687FA4"></path><path d="M51.5151 34.1509C51.5151 34.1509 52.1382 34.1127 52.3711 33.4626C52.3711 33.4626 52.5537 32.889 52.0816 32.615C52.0816 32.615 51.7039 32.462 51.4143 32.5767C51.4143 32.5767 51.4647 31.9075 52.2138 31.8183C52.2138 31.8183 53.0446 31.812 53.3279 32.6532C53.3279 32.6532 53.5419 33.2587 53.2398 33.947C53.2398 33.947 52.6921 35.0878 51.3388 34.9731L51.3514 35.1005C51.3514 35.1005 52.4215 35.2726 53.1265 34.374C53.1265 34.374 53.7937 33.6793 53.4349 32.5449C53.4349 32.5449 53.0446 31.6462 52.1886 31.7227C52.1886 31.7227 51.2696 31.7291 51.2633 32.7934C51.2633 32.7934 51.8109 32.5258 52.0942 32.8317C52.0942 32.8317 52.4718 33.1694 52.113 33.6857C52.113 33.6857 51.7794 34.0362 51.5528 34.0298L51.5151 34.1509Z" fill="#687FA4"></path><path d="M50.8919 33.8705C50.8919 33.8705 50.2687 33.4817 50.1617 32.4493C50.1617 32.4493 50.061 31.3786 51.1877 30.7158C51.1877 30.7158 52.2767 30.1613 53.2209 30.7731C53.2209 30.7731 54.0329 31.2384 54.4987 32.188C54.4987 32.188 54.7127 32.5321 54.8134 33.4053L54.9897 33.5773C54.9897 33.5773 54.9708 32.513 54.2973 31.6335C54.2973 31.6335 53.63 30.5564 52.4592 30.3525C52.4592 30.3525 51.6535 30.225 50.9863 30.6393C50.9863 30.6393 50.1869 31.0854 50.0295 32.1306C50.0295 32.1306 49.8533 33.2013 50.8289 34.0107L50.8919 33.8705Z" fill="#687FA4"></path><path d="M52.2893 33.2204C52.2893 33.2204 51.4081 33.3352 51.1626 34.4951C51.1626 34.4951 50.9737 35.3364 51.4836 36.235C51.4836 36.235 52.0312 37.2483 53.158 37.5287C53.158 37.5287 53.8189 37.6753 54.1714 37.2866C54.1714 37.2866 54.8449 36.8086 55.0589 35.4893C55.0589 35.4893 55.1722 34.9731 55.1471 34.7819C55.1471 34.7819 55.7891 35.6423 55.9339 36.0183C55.9339 36.0183 55.852 36.9169 55.1471 37.9111C55.1471 37.9111 54.5491 38.7906 53.6175 38.472C53.6175 38.472 52.3334 38.1533 51.3199 36.6556C51.3199 36.6556 50.7534 35.7889 50.8478 34.8839C50.8478 34.8839 50.8164 34.0044 51.5088 33.3925C51.5088 33.3925 51.9494 33.0229 52.2641 33.0101L52.2893 33.2204Z" fill="#687FA4"></path><path d="M53.4916 32.7552C53.4916 32.7552 54.2595 32.8508 55.0778 33.6092C55.0778 33.6092 56.0157 34.4824 56.5256 35.0559C56.5256 35.0559 57.3879 36.0502 57.6145 36.2732C57.6145 36.2732 57.9293 36.611 58.0866 36.611C58.0866 36.611 58.2377 36.7066 59.163 35.808C59.163 35.808 60.038 34.9858 60.573 33.7685C60.573 33.7685 61.1143 32.7552 61.1332 31.8821C61.1332 31.8821 61.171 30.9898 60.6611 30.6775C60.6611 30.6775 60.3149 30.4099 59.9247 30.4099L59.868 30.3143C59.868 30.3143 60.2079 30.2059 60.7933 30.6393C60.7933 30.6393 61.2654 31.0535 61.2528 31.7865C61.2528 31.7865 61.2969 32.6277 60.6234 33.9789C60.6234 33.9789 60.0568 35.0687 59.5155 35.6487C59.5155 35.6487 58.5147 36.8213 58.0866 36.7958C58.0866 36.7958 57.9607 36.8086 57.709 36.6301C57.709 36.6301 57.5956 36.5027 56.6955 35.432C56.6955 35.432 56.0598 34.6353 55.4995 34.1127C55.4995 34.1127 54.5805 33.3033 54.3036 33.195C54.3036 33.195 53.7308 32.8444 53.479 32.8827L53.4916 32.7552Z" fill="#687FA4"></path><path d="M59.7862 29.7916C59.7862 29.7916 60.7115 29.7598 61.278 30.4672C61.278 30.4672 61.8445 31.0472 61.8508 32.1434C61.8508 32.1434 61.8634 33.0993 61.4354 34.1573C61.4354 34.1573 60.9759 35.3555 60.4157 36.031C60.4157 36.031 59.5344 37.1973 59.0245 37.6307C59.0245 37.6307 58.3951 38.1979 58.1055 38.3126C58.1055 38.3126 57.7845 38.5166 57.3313 38.0067C57.3313 38.0067 57.111 37.7964 56.8277 37.0954C56.8277 37.0954 56.2675 35.9609 55.6443 35.0177C55.6443 35.0177 54.6057 33.6347 53.5105 33.3734L53.5482 33.0229C53.5482 33.0229 54.3288 33.1376 55.2352 34.0553C55.2352 34.0553 55.9528 34.6863 56.5193 35.4638C56.5193 35.4638 57.1173 36.2605 57.3565 36.5473C57.3565 36.5473 57.7027 36.9743 57.9922 36.987C57.9922 36.987 58.3699 37.0954 59.0812 36.3816C59.0812 36.3816 60.0002 35.5467 60.5478 34.5206C60.5478 34.5206 61.1458 33.6156 61.3535 32.462C61.3535 32.462 61.6116 31.5315 61.1395 30.8177C61.1395 30.8177 60.8374 30.2441 59.8303 30.1549L59.7862 29.7916Z" fill="#687FA4"></path><path d="M59.7421 29.5112C59.7421 29.5112 60.5415 29.4666 61.2717 30.0657C61.2717 30.0657 61.876 30.5692 62.0145 31.2065C62.0145 31.2065 62.2851 31.8374 62.1089 32.9528C62.1089 32.9528 61.9326 34.2274 61.2088 35.381C61.2088 35.381 60.5352 36.5281 60.1009 37.0253C60.1009 37.0253 59.4652 37.7837 58.842 38.268C58.842 38.268 58.2881 38.7779 57.9356 38.7333C57.9356 38.7333 57.3187 38.8034 56.7711 37.8283C56.7711 37.8283 56.3871 37.038 56.1731 36.5791C56.1731 36.5791 55.6695 35.5594 55.0652 34.7883C55.0652 34.7883 54.5365 33.9916 53.479 33.622L53.4727 33.4945C53.4727 33.4945 54.2532 33.6921 54.9834 34.476C55.6821 35.2726 55.6066 35.33 55.9905 35.9418C55.9905 35.9418 56.3871 36.6365 56.5633 37.0699C56.5633 37.0699 56.7837 37.5033 56.941 37.7773C56.941 37.7773 57.2369 38.3127 57.602 38.4784C57.602 38.4784 57.9041 38.6887 58.3321 38.4465C58.3321 38.4465 58.9553 38.0768 59.8428 37.089C59.8428 37.089 60.4597 36.4007 61.1647 35.1643C61.1647 35.1643 61.6494 34.2975 61.8949 33.1695C61.8949 33.1695 62.2222 32.0924 61.8193 31.079C61.8193 31.079 61.5487 30.378 60.9885 30.0083C60.9885 30.0083 60.3653 29.6196 59.7358 29.6323L59.7421 29.5112Z" fill="#687FA4"></path><path d="M52.2075 32.8954C52.2075 32.8954 51.3451 33.1057 50.9674 33.9024C50.9674 33.9024 50.5331 34.6608 50.8164 35.7889C50.8164 35.7889 51.1311 36.8149 51.9116 37.5797C51.9116 37.5797 52.9188 38.6058 54.1022 38.6696C54.1022 38.6696 54.7253 38.6313 55.1345 38.1597C55.1345 38.1597 55.6947 37.5861 56.0598 36.3497L56.1416 36.4644C56.1416 36.4644 55.9087 37.3121 55.2352 38.1788C55.2352 38.1788 54.8386 38.7843 54.0581 38.7588C54.0581 38.7588 53.4412 38.8098 52.5663 38.1979C52.5663 38.1979 51.4521 37.5734 50.9171 36.2732C50.9171 36.2732 50.5457 35.5722 50.6275 34.8074C50.6275 34.8074 50.6905 33.7749 51.3955 33.2268C51.3955 33.2268 51.748 32.9018 52.1823 32.8126L52.2075 32.8954Z" fill="#687FA4"></path><path d="M55.1848 33.7303C55.1848 33.7303 55.2415 32.6405 54.3036 31.3403C54.3036 31.3403 53.8315 30.6584 52.9062 30.3079C52.9062 30.3079 52.1256 30.0274 51.4018 30.2505C51.4018 30.2505 50.6338 30.4098 50.0988 31.2893C50.0988 31.2893 49.6896 32.035 49.8911 32.8699C49.8911 32.8699 50.0673 33.6857 50.7723 34.1318L50.659 34.6034C50.659 34.6034 49.8281 34.272 49.5323 33.265C49.5323 33.265 49.1357 32.2007 49.5952 31.2129C49.5952 31.2129 50.2498 29.849 51.641 29.7725C51.641 29.7725 52.5159 29.4793 53.8692 30.4544C53.8692 30.4544 54.7694 31.0599 55.3296 32.0541C55.3296 32.0541 56.1794 33.5518 56.0598 34.5843L55.1848 33.7303Z" fill="#687FA4"></path><path d="M50.6716 34.7373C50.6716 34.7373 49.7148 34.4505 49.3308 33.1121C49.3308 33.1121 48.9972 32.239 49.3938 31.2384C49.3938 31.2384 49.8281 30.0721 50.9926 29.7534C50.9926 29.7534 52.2012 29.3392 53.1768 29.8681C53.1768 29.8681 54.2406 30.3589 55.0967 31.4105C55.0967 31.4105 55.6695 32.0669 56.129 33.3989C56.129 33.3989 56.3682 34.3039 56.3179 34.9285L56.4563 35.0751C56.4563 35.0751 56.62 33.4116 55.3988 31.6718C55.3988 31.6718 54.6372 30.2951 52.9125 29.6514C52.9125 29.6514 52.006 29.2499 50.7975 29.6514C50.7975 29.6514 49.3497 30.1103 49.0665 31.8247C49.0665 31.8247 48.8461 32.9145 49.5197 33.947C49.5197 33.947 50.0044 34.7564 50.6401 34.8711L50.6716 34.7373Z" fill="#687FA4"></path><path d="M55.7954 13.5144C55.7954 13.5144 55.8206 13.285 56.2297 13.0555C56.2297 13.0555 56.4249 12.9599 56.5004 12.8134C56.5004 12.8134 56.6137 13.4124 56.2927 13.7184C56.2927 13.7184 55.9842 14.0498 55.808 14.4067L55.7954 13.5144Z" fill="#687FA4"></path><path d="M55.8017 13.5144C55.8017 13.5144 55.7828 13.285 55.3737 13.0555C55.3737 13.0555 55.1785 12.9599 55.103 12.8134C55.103 12.8134 54.9897 13.4124 55.3107 13.7184C55.3107 13.7184 55.6317 14.0498 55.8143 14.4067L55.8017 13.5144Z" fill="#687FA4"></path><path d="M54.7568 14.3939H55.5499C55.5499 14.3939 55.3737 13.986 54.9519 13.6483C54.9582 13.6483 55.0841 14.0561 54.7568 14.3939Z" fill="#687FA4"></path><path d="M56.8655 14.3939H56.0724C56.0724 14.3939 56.2486 13.986 56.6703 13.6483C56.664 13.6483 56.5382 14.0561 56.8655 14.3939Z" fill="#687FA4"></path><path opacity="0.99" d="M57.0354 14.6106H54.5617C54.3854 14.6106 54.2406 14.7572 54.2406 14.9356C54.2406 15.1141 54.3854 15.2607 54.5617 15.2607H57.0354C57.2117 15.2607 57.3565 15.1141 57.3565 14.9356C57.3565 14.7572 57.218 14.6106 57.0354 14.6106ZM54.6057 15.0822C54.6057 15.0822 54.2721 14.9229 54.6183 14.7381L55.0841 14.7508C55.0841 14.7508 54.9205 14.9675 55.1219 15.0822H54.6057ZM56.1416 15.0886H55.4555C55.3611 15.0886 55.2792 15.0121 55.2792 14.9101C55.2792 14.8145 55.3548 14.7317 55.4555 14.7317H56.1416C56.236 14.7317 56.3179 14.8082 56.3179 14.9101C56.3179 15.0121 56.2423 15.0886 56.1416 15.0886ZM56.9914 15.0822H56.4752C56.6767 14.9675 56.513 14.7508 56.513 14.7508L56.9788 14.7381C57.325 14.9229 56.9914 15.0822 56.9914 15.0822Z" fill="#687FA4"></path><path d="M54.5302 15.3818H55.6129C55.6129 15.3818 55.2037 15.8789 55.0338 16.1848C55.0338 16.1848 54.9834 15.9617 54.8827 15.8279C54.889 15.8279 54.5617 15.4583 54.5302 15.3818Z" fill="#687FA4"></path><path d="M56.9977 15.4073L55.915 15.369C55.915 15.369 56.3053 15.8789 56.4689 16.1912C56.4689 16.1912 56.5256 15.9681 56.6326 15.8406C56.6263 15.8343 56.9662 15.4774 56.9977 15.4073Z" fill="#687FA4"></path><path d="M55.4429 28.893H56.0409C56.0409 28.893 56.0913 28.995 56.0031 29.0205V29.2563C56.0031 29.2563 55.9591 29.3391 55.915 29.3391H55.5436C55.5436 29.3391 55.4807 29.3009 55.487 29.2372V29.0014C55.487 29.0077 55.3925 28.9822 55.4429 28.893Z" fill="#687FA4"></path><path d="M55.5499 29.4156H55.9087L55.9213 29.5112C55.9213 29.5112 56.0409 29.5813 55.9717 29.7725C55.9717 29.7725 55.7702 30.2314 55.7388 30.2696C55.7388 30.2696 55.5247 29.8745 55.4681 29.6578C55.4681 29.6578 55.4618 29.5622 55.5373 29.5048L55.5499 29.4156Z" fill="#687FA4"></path><path d="M56.0031 27.338H55.5058V27.663H56.0031V27.338Z" fill="#687FA4"></path><path d="M54.6309 26.1398C54.6309 26.1398 54.4169 26.4393 54.505 27.0703C54.505 27.0703 54.5805 27.6502 55.2415 27.9753C55.2415 27.9753 56.0283 28.3258 56.6263 27.7586C56.6263 27.7586 57.3879 27.1149 56.9347 26.1971C56.9347 26.1971 57.1991 25.8466 57.048 25.1647C57.048 25.1647 57.2243 25.3431 57.2243 25.6809C57.2243 25.6809 57.325 25.5279 57.2872 25.3304C57.2872 25.3304 57.5264 25.4961 57.5138 25.8594C57.5138 25.8594 57.5012 26.076 57.155 26.3628C57.155 26.3628 57.0858 26.6305 57.2683 26.5477C57.2683 26.5477 57.6964 26.229 57.6901 25.9103C57.6901 25.9103 57.9985 26.3246 57.8411 26.6369C57.8411 26.6369 57.6964 26.9364 57.602 26.9938C57.602 26.9938 57.7845 27.0065 57.8474 26.809C57.8474 26.809 57.9733 27.3507 57.2998 27.4399C57.2998 27.4399 57.0921 27.4909 57.004 27.4527C57.004 27.4527 56.8781 27.5801 56.9914 27.6184C56.9914 27.6184 57.3376 27.7841 57.7278 27.51C57.7278 27.51 57.6145 27.9753 57.2683 28.1792C57.2683 28.1792 57.1047 28.2302 56.9536 28.1983C56.9536 28.1983 57.0417 28.3322 57.218 28.2939C57.218 28.2939 57.0166 28.6508 56.6641 28.5234C56.6641 28.5234 56.3556 28.3959 56.1983 28.1282C56.1983 28.1282 56.0094 28.09 56.0472 28.2812C56.0472 28.2812 56.1542 28.6317 56.6326 28.6763C56.6326 28.6763 56.3241 28.944 55.9465 28.8611C55.9465 28.8611 55.7388 28.791 55.6003 28.5807C55.6003 28.5807 55.6129 28.7719 55.6947 28.8739C55.6947 28.8739 55.4177 28.9249 55.1596 28.4596C55.1596 28.4596 55.0904 28.2876 55.1596 28.1091C55.1596 28.1091 55.1219 27.9179 54.9708 28.0581C54.9708 28.0581 54.8072 28.2876 55.0652 28.7464C55.0652 28.7464 54.291 28.5998 54.4043 28.0199C54.4043 28.0199 54.291 28.1346 54.291 28.313C54.291 28.313 53.9763 27.9816 54.1588 27.561C54.1588 27.561 54.291 27.2806 54.4295 27.2487C54.4295 27.2487 54.4358 27.0639 54.3225 27.0958C54.3225 27.0958 53.8944 27.3061 53.8755 27.7904C53.8755 27.7904 53.4286 27.1531 53.8944 26.6815C53.8944 26.6815 53.6867 26.7325 53.6238 26.8472C53.6238 26.8472 53.6301 26.1971 54.0644 26.1589C54.0644 26.1589 54.3225 26.1525 54.398 26.2736C54.398 26.2736 54.5302 26.1653 54.4169 26.0633C54.4169 26.0633 54.1147 25.7829 53.7874 26.0697C53.7874 26.0697 53.8818 25.5088 54.3602 25.4132C54.3602 25.4132 54.5239 25.4706 54.505 25.6873C54.5176 25.6682 54.4672 25.955 54.6309 26.1398Z" fill="#687FA4"></path><path d="M54.6687 26.3182C54.6687 26.3182 54.5176 26.7261 54.6435 27.0894C54.6435 27.0894 54.7883 27.7012 55.4933 27.9179C55.4933 27.9179 56.1983 28.0454 56.6074 27.5483C56.6074 27.5483 57.0921 27.134 56.8718 26.3692L56.7081 26.5158C56.7081 26.5158 56.7774 26.9556 56.5382 27.2997C56.5382 27.2997 56.2549 27.7458 55.7765 27.7331C55.7765 27.7331 55.2163 27.7522 54.8764 27.1595C54.8764 27.1595 54.7442 26.7707 54.8197 26.4903L54.6687 26.3182Z" fill="#687FA4"></path><path d="M55.5562 27.236H55.9654C55.9654 27.236 56.0346 27.1914 56.0409 27.1149V26.9492C56.0409 26.9492 56.0661 26.8026 56.3116 26.6751C56.3116 26.6751 56.6515 26.5158 56.7648 26.3565C56.7648 26.3565 56.9284 26.2354 56.9536 25.904C56.9536 25.904 57.0606 25.8275 56.9725 25.7956H56.5696C56.5696 25.7956 56.6074 26.0824 56.2927 26.1461C56.2927 26.1461 56.0031 26.1334 55.9654 25.9231V25.6108C55.9654 25.6108 56.0031 25.6172 56.0346 25.5853C56.0346 25.5853 56.0724 25.5088 56.0157 25.477H55.5436C55.5436 25.477 55.4807 25.5024 55.4933 25.5343C55.4933 25.5343 55.4807 25.598 55.5562 25.6172V25.9358C55.5562 25.9358 55.5122 26.1398 55.2415 26.1525C55.2415 26.1525 54.9897 26.127 54.996 25.802H54.5554C54.5554 25.802 54.5176 25.8785 54.5931 25.8912C54.5931 25.8912 54.6309 26.3118 55.0275 26.5477C55.0275 26.5477 55.1345 26.5986 55.2415 26.6369C55.2415 26.6369 55.4807 26.6942 55.487 26.9364L55.4933 27.1467C55.5059 27.1595 55.5059 27.1977 55.5562 27.236Z" fill="#687FA4"></path><path d="M54.4924 25.3623L54.505 25.0245C54.505 25.0245 54.3036 25.1774 54.1966 25.3176C54.1966 25.324 54.4232 25.3113 54.4924 25.3623Z" fill="#687FA4"></path><path d="M55.4555 25.3112C55.4555 25.3112 55.2918 25.0563 54.996 24.8587C54.996 24.8587 55.1974 24.7185 55.4051 24.7185C55.4051 24.7185 55.5058 24.9735 55.4555 25.3112Z" fill="#687FA4"></path><path d="M56.513 25.7128C56.513 25.7128 56.3367 25.4706 56.0912 25.4005L56.0535 24.6548C56.0535 24.6548 56.5633 24.8588 56.513 25.7128Z" fill="#687FA4"></path><path d="M56.5759 25.0436C56.5759 25.0436 56.6892 24.8524 56.4375 24.7759L56.5759 25.0436Z" fill="#687FA4"></path><path d="M55.04 25.6363C55.04 25.6363 55.2415 25.4706 55.4492 25.4579C55.4492 25.4579 55.1722 25.2157 55.0149 25.1456L55.04 25.6363Z" fill="#687FA4"></path><path d="M55.1282 25.9932C55.1282 25.9932 55.3044 25.8402 55.487 25.7765C55.487 25.7765 55.5121 25.6873 55.4492 25.6108C55.4492 25.6108 55.1533 25.7192 55.0841 25.8402C55.0841 25.8402 55.0526 25.9677 55.1282 25.9932Z" fill="#687FA4"></path><path d="M56.129 25.6172C56.129 25.6172 56.3556 25.7192 56.4563 25.8594C56.4563 25.8594 56.5319 26.006 56.3619 26.0123C56.3619 26.0123 56.2171 25.8466 56.1101 25.802C56.1038 25.802 56.0787 25.6745 56.129 25.6172Z" fill="#687FA4"></path><path d="M55.531 25.3367H55.9905C55.9905 25.3367 56.0535 25.2985 55.9905 25.222V24.9289C55.9905 24.9289 56.085 24.8269 55.9968 24.7632H55.5499C55.5499 24.7632 55.4618 24.8651 55.5688 24.9225L55.5751 25.2157C55.5751 25.2093 55.4933 25.2794 55.531 25.3367Z" fill="#687FA4"></path><path d="M54.568 25.6745H54.9645V25.3368H54.5491C54.5491 25.3368 54.5113 25.4132 54.6057 25.4196V25.5853C54.6057 25.5917 54.5365 25.6427 54.568 25.6745Z" fill="#687FA4"></path><path d="M56.9977 25.6745H56.6011V25.3368H57.0166C57.0166 25.3368 57.0543 25.4132 56.9599 25.4196V25.5853C56.9599 25.5917 57.0291 25.6427 56.9977 25.6745Z" fill="#687FA4"></path><path d="M56.6578 25.2157H56.9851C56.9851 25.2157 57.0228 24.6803 57.0795 24.0876C57.0795 24.0876 57.1676 23.6096 57.0228 23.2846C57.0228 23.2846 56.8718 22.8703 56.8592 22.7173C56.8592 22.7173 56.7899 23.0296 56.6955 23.2081C56.6955 23.2081 56.5256 23.5969 56.6011 24.0812C56.6074 24.0812 56.6578 25.0436 56.6578 25.2157Z" fill="#687FA4"></path><path d="M54.9582 25.2157H54.6309C54.6309 25.2157 54.5931 24.6803 54.5365 24.0876C54.5365 24.0876 54.4484 23.6096 54.5931 23.2846C54.5931 23.2846 54.7442 22.8703 54.7568 22.7173C54.7568 22.7173 54.826 23.0296 54.9204 23.2081C54.9204 23.2081 55.0904 23.5969 55.0149 24.0812C55.0086 24.0812 54.9582 25.0436 54.9582 25.2157Z" fill="#687FA4"></path><path d="M55.5688 24.6421H55.9842C55.9842 24.6421 56.1038 23.2527 56.1164 23.0551C56.1164 23.0551 56.2045 22.4815 56.129 22.1501C56.129 22.1501 55.9087 21.4682 55.7828 21.1559C55.7828 21.1559 55.5688 21.7741 55.4618 22.1501C55.4618 22.1501 55.3611 22.3668 55.487 23.0424C55.487 23.0488 55.6066 24.4764 55.5688 24.6421Z" fill="#687FA4"></path><path d="M55.1093 23.8199C55.1093 23.8199 55.3925 23.9028 55.5058 23.8964L55.5121 24.1577C55.5121 24.1577 55.2541 24.1768 55.0841 24.1067L55.1093 23.8199Z" fill="#687FA4"></path><path d="M56.0912 23.9091L56.0724 24.1577C56.0724 24.1577 56.4563 24.1641 56.5633 24.1067C56.5633 24.1067 56.5256 23.9028 56.5445 23.8199C56.5445 23.8199 56.3178 23.9346 56.0912 23.9091Z" fill="#687FA4"></path><path d="M57.1613 23.6478C57.1613 23.6478 57.1613 23.8645 57.1424 23.9538C57.1424 23.9538 57.8663 23.6861 58.1936 23.3738L57.9545 23.1953C57.9482 23.1953 57.5894 23.5331 57.1613 23.6478Z" fill="#687FA4"></path><path d="M53.5734 23.2527C53.5734 23.2527 54.0329 23.5204 54.4232 23.6224L54.4106 23.9028C54.4106 23.9028 53.7119 23.7371 53.3594 23.3993L53.5734 23.2527Z" fill="#687FA4"></path><path d="M54.1777 16.7074C54.1777 16.7074 55.9842 16.6054 57.4005 16.7074C57.4005 16.7074 56.8906 16.0701 57.0228 15.7514C57.0228 15.7514 56.6326 16.1976 56.4374 16.6182C56.4374 16.6182 55.9087 15.9362 55.8017 15.5411C55.8017 15.5411 55.5436 16.1848 55.1974 16.6054C55.1974 16.6054 55.0967 16.376 54.5428 15.8088C54.5491 15.8088 54.5868 16.3505 54.1777 16.7074Z" fill="#687FA4"></path><path d="M57.9293 17.23C57.8223 16.8795 57.4824 16.8667 57.4824 16.8667C56.236 16.7711 53.9763 16.8667 53.9763 16.8667C53.6426 16.9751 53.6175 17.281 53.6175 17.281C53.693 17.5678 54.121 17.6315 54.121 17.6315C55.4051 17.5296 57.5579 17.6315 57.5579 17.6315C57.9859 17.5423 57.9293 17.23 57.9293 17.23ZM54.0455 17.4212C54.0455 17.4212 53.8692 17.3575 53.8692 17.2173C53.8692 17.2173 53.8881 17.0834 54.0707 17.0197C54.0707 17.0197 54.2784 17.0006 54.7505 17.0006C54.7505 17.0006 54.505 17.1981 54.7883 17.4276L54.0455 17.4212ZM56.4815 17.4021H55.0589C54.6246 17.1854 55.0589 16.9815 55.0589 16.9815L56.4815 16.9687C56.9473 17.1981 56.4815 17.4021 56.4815 17.4021ZM57.539 17.4212L56.8025 17.4276C57.0858 17.1981 56.8403 17.0006 56.8403 17.0006C57.3124 17.0006 57.5201 17.0197 57.5201 17.0197C57.6964 17.0834 57.7215 17.2173 57.7215 17.2173C57.7153 17.3575 57.539 17.4212 57.539 17.4212Z" fill="#687FA4"></path><path d="M58.1559 18.5875C58.1559 18.5875 55.2289 18.1286 53.4979 18.5875C53.4979 18.5875 53.97 17.982 53.9888 17.6188C53.9888 17.6188 54.4043 17.982 54.568 18.3708C54.568 18.3708 55.1156 17.7653 55.1785 17.6124C55.1785 17.6124 55.6443 18.2051 55.8017 18.3517C55.8017 18.3517 56.085 18.1541 56.4815 17.606C56.4815 17.606 56.9977 18.2497 57.0921 18.409C57.0921 18.409 57.3376 17.8928 57.5894 17.6634C57.5894 17.6634 57.6397 17.9438 58.1559 18.5875Z" fill="#687FA4"></path><path d="M52.6166 19.6773C52.6166 19.6773 55.0652 18.9571 59.226 19.6773C59.226 19.6773 58.6469 19.1165 58.5524 18.6066C58.5524 18.6066 58.1622 19.0527 58.0866 19.4543C58.0866 19.4543 57.6397 18.6895 57.6334 18.5748C57.6334 18.5748 57.0732 19.3332 57.0354 19.365C57.0354 19.365 56.4563 18.5875 56.3808 18.4409C56.3808 18.4409 55.9654 19.142 55.7576 19.3204C55.7576 19.3204 55.2289 18.6194 55.1596 18.4409C55.1596 18.4409 54.782 19.142 54.6938 19.3332C54.6938 19.3332 54.2532 18.6831 54.0833 18.5174C54.0833 18.5174 53.8189 19.2567 53.6741 19.4351C53.6741 19.4351 53.4538 18.9508 53.1013 18.5811C53.1076 18.5684 53.1076 19.0782 52.6166 19.6773Z" fill="#687FA4"></path><path d="M51.5465 20.9201C51.5465 20.9201 55.0841 19.3268 60.0569 20.9201C60.0569 20.9201 59.4966 20.0597 59.547 19.7156C59.547 19.7156 59.0812 20.3656 59.0434 20.5887C59.0434 20.5887 58.6469 19.8048 58.5965 19.6263C58.5965 19.6263 58.2188 20.1999 58.0678 20.372C58.0678 20.372 57.7153 19.8048 57.6145 19.4925C57.6145 19.4925 57.0732 20.1617 57.0354 20.2509C57.0354 20.2509 56.5067 19.4989 56.4375 19.3969C56.4375 19.3969 55.9654 19.9514 55.745 20.1808C55.745 20.1808 55.3674 19.5307 55.2163 19.3842C55.2163 19.3842 54.826 20.0661 54.7316 20.1872C54.7316 20.1872 54.3162 19.6263 54.1336 19.4606C54.1336 19.4606 53.7748 20.1107 53.6301 20.3146C53.6301 20.3146 53.1076 19.6901 53.0258 19.6263C53.0258 19.6263 52.7173 20.3593 52.5977 20.5313C52.5977 20.5313 52.39 19.996 52.0501 19.7092C52.0753 19.7092 52.0627 20.3083 51.5465 20.9201Z" fill="#687FA4"></path><path d="M51.5906 21.124C51.5906 21.124 54.9267 19.4288 59.9876 21.124C59.9876 21.124 60.3464 21.806 58.4391 23.2272L58.1559 23.0742C58.1559 23.0742 58.8546 22.6345 59.0938 22.3286C59.0938 22.3286 57.4761 21.7805 56.0598 21.7996L56.0157 21.653C56.0157 21.653 56.4941 21.653 56.6578 21.3152C56.6578 21.3152 56.8592 21.7868 57.3879 21.8315C57.3879 21.8315 57.9104 21.8952 58.2503 21.4299C58.2503 21.4299 58.3007 21.8633 58.779 22.0736C58.779 22.0736 59.3015 22.2648 59.4966 21.8123C59.4966 21.8123 59.6477 21.4682 59.2889 21.226C59.2889 21.226 58.8042 20.9456 58.2377 21.3598C58.2377 21.3598 58.1433 20.8627 57.4698 20.7735C57.4698 20.7735 56.8844 20.7735 56.6641 21.2069C56.6641 21.2069 56.6263 20.9774 56.3116 20.7926C56.3116 20.7926 55.7702 20.5696 55.2981 20.8117C55.2981 20.8117 55.0904 20.9073 54.9834 21.1495C54.9834 21.1495 54.8575 20.9137 54.4924 20.8245C54.4924 20.8245 53.9637 20.7289 53.5923 21.0476C53.5923 21.0476 53.3846 21.2515 53.3153 21.4108C53.3153 21.4108 53.1139 21.1814 52.8999 21.0922C52.8999 21.0922 52.3208 20.9583 51.9935 21.3152C51.9935 21.3152 51.6347 21.7104 52.1193 22.0227C52.1193 22.0227 52.4404 22.1756 53.0447 21.857C53.0447 21.857 53.309 21.704 53.3279 21.4809C53.3279 21.4809 53.4412 21.7295 53.9511 21.7167C53.9511 21.7167 54.4609 21.755 54.782 21.4809C54.782 21.4809 54.933 21.3471 54.9897 21.2579C54.9897 21.2579 55.2163 21.5829 55.5373 21.6594L55.4933 21.7677C55.4933 21.7677 53.7622 21.6912 52.3019 22.284C52.3019 22.284 52.9628 22.9149 53.3405 23.0997L53.0384 23.2718C53.0447 23.2846 51.2822 22.131 51.5906 21.124Z" fill="#687FA4"></path><path d="M55.3925 22.9468C55.3925 22.9468 55.0652 22.9595 54.9079 22.9723L54.826 22.7365C54.826 22.7365 55.147 22.6664 55.3673 22.6982L55.3925 22.9468Z" fill="#687FA4"></path><path d="M56.2423 22.7237L56.2045 22.9596C56.2045 22.9596 56.5193 22.9468 56.6955 22.9787L56.7899 22.7301C56.7836 22.7301 56.4878 22.6919 56.2423 22.7237Z" fill="#687FA4"></path><path d="M55.7954 40.9639C46.8067 40.9639 39.4924 33.5582 39.4924 24.4572C39.4924 15.3563 46.8067 7.95056 55.7954 7.95056C64.7841 7.95056 72.0984 15.3563 72.0984 24.4572C72.0984 33.5646 64.7841 40.9639 55.7954 40.9639ZM55.7954 8.14176C46.9074 8.14176 39.6749 15.4646 39.6749 24.4636C39.6749 33.4626 46.9074 40.7855 55.7954 40.7855C64.6834 40.7855 71.9159 33.4626 71.9159 24.4636C71.9159 15.4646 64.6834 8.14176 55.7954 8.14176Z" fill="#687FA4"></path><path d="M56.022 46.6234C44.0308 46.6234 34.2741 36.7448 34.2741 24.6038C34.2741 12.4628 44.0308 2.58432 56.022 2.58432C68.0133 2.58432 77.7699 12.4628 77.7699 24.6038C77.7699 36.7448 68.0133 46.6234 56.022 46.6234ZM56.022 2.76277C44.1252 2.76277 34.4504 12.5648 34.4504 24.6102C34.4504 36.6556 44.1252 46.4513 56.022 46.4513C67.9188 46.4513 77.5936 36.6492 77.5936 24.6038C77.5936 12.5584 67.9188 2.76277 56.022 2.76277Z" fill="#687FA4"></path></svg>